<svg xmlns="http://www.w3.org/2000/svg" viewBox="0 0 62.17 62.17"><defs><style>.cls-1{fill:#fff;}</style></defs><title>avatar</title><g id="Layer_2" data-name="Layer 2"><g id="Layer_1-2" data-name="Layer 1"><path class="cls-1" d="M31.09,0A31.09,31.09,0,1,0,62.17,31.09,31.09,31.09,0,0,0,31.09,0ZM24.25,16.29A10.58,10.58,0,0,1,26,15.13a10.66,10.66,0,0,1,5.12-1.29,9.83,9.83,0,0,1,1.09.05A10.7,10.7,0,0,1,38.68,17,10.45,10.45,0,0,1,40,18.57a10.72,10.72,0,0,1,0,12,10,10,0,0,1-1.31,1.59,10.7,10.7,0,0,1-6.5,3.09,9.82,9.82,0,0,1-1.09.06,10.55,10.55,0,0,1-3.2-.49A10.84,10.84,0,0,1,26,34a10.58,10.58,0,0,1-1.72-1.16,10.75,10.75,0,0,1,0-16.57ZM12.32,46.34c3.88-4.42,7.25-8.12,11.59-10.07a13.58,13.58,0,0,0,14.35,0C42.6,38.22,46,41.92,49.85,46.34Z"/></g></g></svg>