<svg id="Layer_1" data-name="Layer 1" xmlns="http://www.w3.org/2000/svg" xmlns:xlink="http://www.w3.org/1999/xlink" viewBox="0 0 2344.18 797.55"><defs><style>.cls-1{fill:#fff;}.cls-2{clip-path:url(#clip-path);}.cls-3{clip-path:url(#clip-path-2);}.cls-4{clip-path:url(#clip-path-3);}.cls-5{clip-path:url(#clip-path-4);}.cls-6{clip-path:url(#clip-path-5);}.cls-7{clip-path:url(#clip-path-6);}.cls-8{clip-path:url(#clip-path-7);}.cls-9{clip-path:url(#clip-path-8);}.cls-10{clip-path:url(#clip-path-9);}.cls-11{clip-path:url(#clip-path-10);}.cls-12{clip-path:url(#clip-path-11);}.cls-13{clip-path:url(#clip-path-12);}.cls-14{clip-path:url(#clip-path-13);}.cls-15{clip-path:url(#clip-path-14);}.cls-16{clip-path:url(#clip-path-15);}.cls-17{clip-path:url(#clip-path-16);}.cls-18{clip-path:url(#clip-path-17);}</style><clipPath id="clip-path" transform="translate(0.41 -0.45)"><path class="cls-1" d="M649.77,735.23v17.2h28v13.74h-28V797.1H635.38V721.39H685v13.84Z"/></clipPath><clipPath id="clip-path-2" transform="translate(0.41 -0.45)"><path class="cls-1" d="M731.32,721.39V797.1H716.94V721.39Z"/></clipPath><clipPath id="clip-path-3" transform="translate(0.41 -0.45)"><path class="cls-1" d="M823.8,721.39V797.1H809.63L779.24,748V797.1H764.85V721.39h14.06l30.5,49.1v-49.1Z"/></clipPath><clipPath id="clip-path-4" transform="translate(0.41 -0.45)"><path class="cls-1" d="M921.36,759.24c0,22.18-14.6,37.86-39.69,37.86H857.33V721.39h24.34C906.76,721.39,921.36,737.07,921.36,759.24Zm-14.38,0c0-14.38-9.74-24-25.64-24h-9.62v48.13h9.62C897.24,783.36,907,773.74,907,759.24Z"/></clipPath><clipPath id="clip-path-5" transform="translate(0.41 -0.45)"><path class="cls-1" d="M1037.85,768.33V797.1h-14.38V768.33l-26.39-46.94h16.55l17,31.47,17.09-31.47h16.44Z"/></clipPath><clipPath id="clip-path-6" transform="translate(0.41 -0.45)"><path class="cls-1" d="M1157.05,759.35c0,21.74-14.93,38.61-36.67,38.61s-36.77-16.87-36.77-38.61,15-38.61,36.77-38.61S1157.05,737.61,1157.05,759.35Zm-14.71,0c0-13.84-8.22-24.23-22-24.23s-22.06,10.39-22.06,24.23,8.22,24.12,22.06,24.12S1142.34,773.09,1142.34,759.35Z"/></clipPath><clipPath id="clip-path-7" transform="translate(0.41 -0.45)"><path class="cls-1" d="M1245.31,721.39v46c0,18.93-11.47,30.61-29,30.61s-29-11.68-29-30.61v-46h14.39V767c0,10.17,5.52,16.44,14.6,16.44s14.6-6.27,14.6-16.44V721.39Z"/></clipPath><clipPath id="clip-path-8" transform="translate(0.41 -0.45)"><path class="cls-1" d="M1303.18,771.14h-10.5v26H1278.3V721.39h28c16.88,0,26.29,11,26.29,24.87,0,10.17-5,18.82-14.39,22.72l16.23,28.12h-16.23Zm-10.5-13.73H1306c7.14,0,11.68-4.66,11.68-11.15s-4.54-11-11.68-11h-13.31Z"/></clipPath><clipPath id="clip-path-9" transform="translate(0.41 -0.45)"><path class="cls-1" d="M1456.33,780H1430.7l-5.84,17.09h-16.34l27.69-75.71h14.71l27.69,75.71h-16.33Zm-4.76-13.74-8-23.25-8,23.25Z"/></clipPath><clipPath id="clip-path-10" transform="translate(0.41 -0.45)"><path class="cls-1" d="M1571.31,759.24c0,22.18-14.6,37.86-39.69,37.86h-24.34V721.39h24.34C1556.71,721.39,1571.31,737.07,1571.31,759.24Zm-14.38,0c0-14.38-9.74-24-25.64-24h-9.62v48.13h9.62C1547.19,783.36,1556.93,773.74,1556.93,759.24Z"/></clipPath><clipPath id="clip-path-11" transform="translate(0.41 -0.45)"><path class="cls-1" d="M1663.46,721.39,1636.1,797.1h-14.71L1594,721.39h16l18.71,54.08,18.72-54.08Z"/></clipPath><clipPath id="clip-path-12" transform="translate(0.41 -0.45)"><path class="cls-1" d="M1742.42,783.36V797.1h-50.29V721.39h49.64v13.84h-35.26v17.2h31.91v13.74h-31.91v17.19Z"/></clipPath><clipPath id="clip-path-13" transform="translate(0.41 -0.45)"><path class="cls-1" d="M1833.28,721.39V797.1h-14.17L1788.72,748V797.1h-14.39V721.39h14.06l30.5,49.1v-49.1Z"/></clipPath><clipPath id="clip-path-14" transform="translate(0.41 -0.45)"><path class="cls-1" d="M1919.16,735.23h-20.33V797.1h-14.39V735.23h-20.33V721.39h55.05Z"/></clipPath><clipPath id="clip-path-15" transform="translate(0.41 -0.45)"><path class="cls-1" d="M2007.42,721.39v46c0,18.93-11.46,30.61-29,30.61s-29-11.68-29-30.61v-46h14.38V767c0,10.17,5.52,16.44,14.6,16.44S1993,777.2,1993,767V721.39Z"/></clipPath><clipPath id="clip-path-16" transform="translate(0.41 -0.45)"><path class="cls-1" d="M2065.29,771.14h-10.5v26h-14.38V721.39h28c16.88,0,26.29,11,26.29,24.87,0,10.17-5,18.82-14.39,22.72l16.22,28.12h-16.22Zm-10.5-13.73h13.31c7.14,0,11.68-4.66,11.68-11.15s-4.54-11-11.68-11h-13.31Z"/></clipPath><clipPath id="clip-path-17" transform="translate(0.41 -0.45)"><path class="cls-1" d="M2176,783.36V797.1h-50.29V721.39h49.64v13.84h-35.26v17.2H2172v13.74h-31.91v17.19Z"/></clipPath></defs><title>2-b</title><path class="cls-1" d="M-.41,42.43h116.5L266,467.31,381.64,146.93q24-65.94,62.53-88.65t91.66-15.85L320,640.34H210.32Z" transform="translate(0.41 -0.45)"/><path class="cls-1" d="M792.81,469q-46.26,12-84.38,8.57T645.9,459.17q-24.42-15-32.55-40.26t4.71-57q26.54,22.29,61.68,24.42a407.6,407.6,0,0,0,67.67-1.29q27.4-2.56,41.54-12t17.56-21.84q3.42-12.42-2.57-26.13t-19.27-24.84q-13.29-11.13-32.55-18t-42.4-6a133.39,133.39,0,0,0-47.12,12,128,128,0,0,0-39.4,28.26,140.5,140.5,0,0,0-27.41,42q-10.29,24-11.14,53.11a154.52,154.52,0,0,0,5.57,47.11,146.7,146.7,0,0,0,19.27,42.4,128.86,128.86,0,0,0,30.84,32.55,90.27,90.27,0,0,0,41.12,16.71q32.53,6,66.81-4.28t60.82-37.7L899,552.11q-35.13,52.26-83.09,74.95T706.29,649.77q-57.4,0-100.65-20.13t-72-53.54a223.55,223.55,0,0,1-42.83-75.81,256,256,0,0,1-13.28-86.52,253.31,253.31,0,0,1,17.14-86.52,225.08,225.08,0,0,1,47.11-74.95q34.24-36.83,80.09-52.26a292.46,292.46,0,0,1,93.8-15.41q53.1,0,91.66,18t62.53,45.83q24,27.85,31.7,61.68t-1.29,65.53q-9,31.69-35.55,57T792.81,469Z" transform="translate(0.41 -0.45)"/><path class="cls-1" d="M1042.08,248a69.46,69.46,0,0,1,21-26.56,149.4,149.4,0,0,1,31.27-18.85,198.05,198.05,0,0,1,35.12-12,192,192,0,0,1,33.41-5.14,171,171,0,0,1,64.24,9q31.68,10.71,58.25,37.26Q1323.9,272,1323.9,347.38v293H1214.25q0-14.55.43-39.4t.43-54.4V485.3q0-31.68-.86-60t-2.57-50.54q-1.73-22.26-4.28-32.55-6.87-27.4-26.12-41.12t-41.55-13.7q-29.13,0-45.4,15.85t-16.28,41.54q-10.27-3.4-20.56-14.13a76.1,76.1,0,0,1-15.41-22.7V640.34H931.57V196.62h110.51Z" transform="translate(0.41 -0.45)"/><path class="cls-1" d="M1408.7,128.09q0-24,9-40.69a75.46,75.46,0,0,1,24-27,102.82,102.82,0,0,1,34.7-15,172.49,172.49,0,0,1,40.26-4.71V200H1616a183.72,183.72,0,0,1-3,33.41A81.15,81.15,0,0,1,1601.44,263a64.14,64.14,0,0,1-23.13,21.41q-14.57,8.15-37.69,8.14h-24V535q0,13.71,10.28,19.27t24,5.14a73.62,73.62,0,0,0,27.41-6.42q13.7-6,19.71-16.28,11.12,28.27,1.28,50.11a79.65,79.65,0,0,1-30.84,35.13q-21,13.29-48.83,17.13t-52.25-4.29q-24.41-8.13-41.55-29.12t-17.13-57V292.56h-54.82V200h54.82Z" transform="translate(0.41 -0.45)"/><path class="cls-1" d="M1749.63,197.48V409.92q0,15.42.43,33a222.56,222.56,0,0,0,3.42,34.27,115,115,0,0,0,10.28,31.26,70.38,70.38,0,0,0,43.69,35.13,94.29,94.29,0,0,0,25.27,3.42,89.75,89.75,0,0,0,24.84-3.42,78.91,78.91,0,0,0,22.27-10.28,61.51,61.51,0,0,0,21.85-23.56A109.89,109.89,0,0,0,1912,479.3a184.7,184.7,0,0,0,3-33.41V285.71q-.87-46.26,30-69t80.52-21V384.22q.84,58.26-3.86,97.22t-14.13,61.25q-24.85,57.4-70.24,82.23T1831,649.77q-66,0-113.08-29.13t-67.67-93.37q-6-19.69-9.42-53.54a736.78,736.78,0,0,1-3.43-74.09V197.48Zm-7.71-197q24,0,41.12,17.14t17.13,41.11q0,24-17.13,41.12T1741.92,117q-24,0-41.12-17.13T1683.67,58.7q0-24,17.13-41.11T1741.92.45Zm179,0q24,0,41.12,17.14,17.13,16.28,17.13,41.11t-17.13,41.12Q1944.93,117,1921,117q-22.29,0-41.12-17.13-17.14-17.13-17.13-41.12t17.13-41.11Q1898.67.46,1921,.45Z" transform="translate(0.41 -0.45)"/><path class="cls-1" d="M2064.85,194.9h95.94v56.54q14.55-30,37.26-47.54t50.12-19.27q36-2.58,58.24,13.27t31.27,38.55a83,83,0,0,1,4.71,46.26q-4.29,23.57-23.13,37.26-7.71-21.41-29.55-27.84t-45.83,1.71q-24,8.16-43.26,30.41t-22.7,58.25q-1.73,20.56-1.71,40.69V640.34H2064.85Z" transform="translate(0.41 -0.45)"/><path class="cls-1" d="M-.41,42.43h116.5L266,467.31,381.64,146.93q24-65.94,62.53-88.65t91.66-15.85L320,640.34H210.32Z" transform="translate(0.41 -0.45)"/><path class="cls-1" d="M792.81,469q-46.26,12-84.38,8.57T645.9,459.17q-24.42-15-32.55-40.26t4.71-57q26.54,22.29,61.68,24.42a407.6,407.6,0,0,0,67.67-1.29q27.4-2.56,41.54-12t17.56-21.84q3.42-12.42-2.57-26.13t-19.27-24.84q-13.29-11.13-32.55-18t-42.4-6a133.39,133.39,0,0,0-47.12,12,128,128,0,0,0-39.4,28.26,140.5,140.5,0,0,0-27.41,42q-10.29,24-11.14,53.11a154.52,154.52,0,0,0,5.57,47.11,146.7,146.7,0,0,0,19.27,42.4,128.86,128.86,0,0,0,30.84,32.55,90.27,90.27,0,0,0,41.12,16.71q32.53,6,66.81-4.28t60.82-37.7L899,552.11q-35.13,52.26-83.09,74.95T706.29,649.77q-57.4,0-100.65-20.13t-72-53.54a223.55,223.55,0,0,1-42.83-75.81,256,256,0,0,1-13.28-86.52,253.31,253.31,0,0,1,17.14-86.52,225.08,225.08,0,0,1,47.11-74.95q34.24-36.83,80.09-52.26a292.46,292.46,0,0,1,93.8-15.41q53.1,0,91.66,18t62.53,45.83q24,27.85,31.7,61.68t-1.29,65.53q-9,31.69-35.55,57T792.81,469Z" transform="translate(0.41 -0.45)"/><path class="cls-1" d="M1042.08,248a69.46,69.46,0,0,1,21-26.56,149.4,149.4,0,0,1,31.27-18.85,198.05,198.05,0,0,1,35.12-12,192,192,0,0,1,33.41-5.14,171,171,0,0,1,64.24,9q31.68,10.71,58.25,37.26Q1323.9,272,1323.9,347.38v293H1214.25q0-14.55.43-39.4t.43-54.4V485.3q0-31.68-.86-60t-2.57-50.54q-1.73-22.26-4.28-32.55-6.87-27.4-26.12-41.12t-41.55-13.7q-29.13,0-45.4,15.85t-16.28,41.54q-10.27-3.4-20.56-14.13a76.1,76.1,0,0,1-15.41-22.7V640.34H931.57V196.62h110.51Z" transform="translate(0.41 -0.45)"/><path class="cls-1" d="M1408.7,128.09q0-24,9-40.69a75.46,75.46,0,0,1,24-27,102.82,102.82,0,0,1,34.7-15,172.49,172.49,0,0,1,40.26-4.71V200H1616a183.72,183.72,0,0,1-3,33.41A81.15,81.15,0,0,1,1601.44,263a64.14,64.14,0,0,1-23.13,21.41q-14.57,8.15-37.69,8.14h-24V535q0,13.71,10.28,19.27t24,5.14a73.62,73.62,0,0,0,27.41-6.42q13.7-6,19.71-16.28,11.12,28.27,1.28,50.11a79.65,79.65,0,0,1-30.84,35.13q-21,13.29-48.83,17.13t-52.25-4.29q-24.41-8.13-41.55-29.12t-17.13-57V292.56h-54.82V200h54.82Z" transform="translate(0.41 -0.45)"/><path class="cls-1" d="M1749.63,197.48V409.92q0,15.42.43,33a222.56,222.56,0,0,0,3.42,34.27,115,115,0,0,0,10.28,31.26,70.38,70.38,0,0,0,43.69,35.13,94.29,94.29,0,0,0,25.27,3.42,89.75,89.75,0,0,0,24.84-3.42,78.91,78.91,0,0,0,22.27-10.28,61.51,61.51,0,0,0,21.85-23.56A109.89,109.89,0,0,0,1912,479.3a184.7,184.7,0,0,0,3-33.41V285.71q-.87-46.26,30-69t80.52-21V384.22q.84,58.26-3.86,97.22t-14.13,61.25q-24.85,57.4-70.24,82.23T1831,649.77q-66,0-113.08-29.13t-67.67-93.37q-6-19.69-9.42-53.54a736.78,736.78,0,0,1-3.43-74.09V197.48Zm-7.71-197q24,0,41.12,17.14t17.13,41.11q0,24-17.13,41.12T1741.92,117q-24,0-41.12-17.13T1683.67,58.7q0-24,17.13-41.11T1741.92.45Zm179,0q24,0,41.12,17.14,17.13,16.28,17.13,41.11t-17.13,41.12Q1944.93,117,1921,117q-22.29,0-41.12-17.13-17.14-17.13-17.13-41.12t17.13-41.11Q1898.67.46,1921,.45Z" transform="translate(0.41 -0.45)"/><path class="cls-1" d="M2064.85,194.9h95.94v56.54q14.55-30,37.26-47.54t50.12-19.27q36-2.58,58.24,13.27t31.27,38.55a83,83,0,0,1,4.71,46.26q-4.29,23.57-23.13,37.26-7.71-21.41-29.55-27.84t-45.83,1.71q-24,8.16-43.26,30.41t-22.7,58.25q-1.73,20.56-1.71,40.69V640.34H2064.85Z" transform="translate(0.41 -0.45)"/><path class="cls-1" d="M649.77,735.23v17.2h28v13.74h-28V797.1H635.38V721.39H685v13.84Z" transform="translate(0.41 -0.45)"/><path class="cls-1" d="M731.32,721.39V797.1H716.94V721.39Z" transform="translate(0.41 -0.45)"/><path class="cls-1" d="M823.8,721.39V797.1H809.63L779.24,748V797.1H764.85V721.39h14.06l30.5,49.1v-49.1Z" transform="translate(0.41 -0.45)"/><path class="cls-1" d="M921.36,759.24c0,22.18-14.6,37.86-39.69,37.86H857.33V721.39h24.34C906.76,721.39,921.36,737.07,921.36,759.24Zm-14.38,0c0-14.38-9.74-24-25.64-24h-9.62v48.13h9.62C897.24,783.36,907,773.74,907,759.24Z" transform="translate(0.41 -0.45)"/><path class="cls-1" d="M1037.85,768.33V797.1h-14.38V768.33l-26.39-46.94h16.55l17,31.47,17.09-31.47h16.44Z" transform="translate(0.41 -0.45)"/><path class="cls-1" d="M1157.05,759.35c0,21.74-14.93,38.61-36.67,38.61s-36.77-16.87-36.77-38.61,15-38.61,36.77-38.61S1157.05,737.61,1157.05,759.35Zm-14.71,0c0-13.84-8.22-24.23-22-24.23s-22.06,10.39-22.06,24.23,8.22,24.12,22.06,24.12S1142.34,773.09,1142.34,759.35Z" transform="translate(0.41 -0.45)"/><path class="cls-1" d="M1245.31,721.39v46c0,18.93-11.47,30.61-29,30.61s-29-11.68-29-30.61v-46h14.39V767c0,10.17,5.52,16.44,14.6,16.44s14.6-6.27,14.6-16.44V721.39Z" transform="translate(0.41 -0.45)"/><path class="cls-1" d="M1303.18,771.14h-10.5v26H1278.3V721.39h28c16.88,0,26.29,11,26.29,24.87,0,10.17-5,18.82-14.39,22.72l16.23,28.12h-16.23Zm-10.5-13.73H1306c7.14,0,11.68-4.66,11.68-11.15s-4.54-11-11.68-11h-13.31Z" transform="translate(0.41 -0.45)"/><path class="cls-1" d="M1456.33,780H1430.7l-5.84,17.09h-16.34l27.69-75.71h14.71l27.69,75.71h-16.33Zm-4.76-13.74-8-23.25-8,23.25Z" transform="translate(0.41 -0.45)"/><path class="cls-1" d="M1571.31,759.24c0,22.18-14.6,37.86-39.69,37.86h-24.34V721.39h24.34C1556.71,721.39,1571.31,737.07,1571.31,759.24Zm-14.38,0c0-14.38-9.74-24-25.64-24h-9.62v48.13h9.62C1547.19,783.36,1556.93,773.74,1556.93,759.24Z" transform="translate(0.41 -0.45)"/><path class="cls-1" d="M1663.46,721.39,1636.1,797.1h-14.71L1594,721.39h16l18.71,54.08,18.72-54.08Z" transform="translate(0.41 -0.45)"/><path class="cls-1" d="M1742.42,783.36V797.1h-50.29V721.39h49.64v13.84h-35.26v17.2h31.91v13.74h-31.91v17.19Z" transform="translate(0.41 -0.45)"/><path class="cls-1" d="M1833.28,721.39V797.1h-14.17L1788.72,748V797.1h-14.39V721.39h14.06l30.5,49.1v-49.1Z" transform="translate(0.41 -0.45)"/><path class="cls-1" d="M1919.16,735.23h-20.33V797.1h-14.39V735.23h-20.33V721.39h55.05Z" transform="translate(0.41 -0.45)"/><path class="cls-1" d="M2007.42,721.39v46c0,18.93-11.46,30.61-29,30.61s-29-11.68-29-30.61v-46h14.38V767c0,10.17,5.52,16.44,14.6,16.44S1993,777.2,1993,767V721.39Z" transform="translate(0.41 -0.45)"/><path class="cls-1" d="M2065.29,771.14h-10.5v26h-14.38V721.39h28c16.88,0,26.29,11,26.29,24.87,0,10.17-5,18.82-14.39,22.72l16.22,28.12h-16.22Zm-10.5-13.73h13.31c7.14,0,11.68-4.66,11.68-11.15s-4.54-11-11.68-11h-13.31Z" transform="translate(0.41 -0.45)"/><path class="cls-1" d="M2176,783.36V797.1h-50.29V721.39h49.64v13.84h-35.26v17.2H2172v13.74h-31.91v17.19Z" transform="translate(0.41 -0.45)"/><path class="cls-1" d="M649.77,735.23v17.2h28v13.74h-28V797.1H635.38V721.39H685v13.84Z" transform="translate(0.41 -0.45)"/><g class="cls-2"><path class="cls-1" d="M636,721.39v0Z" transform="translate(0.41 -0.45)"/><rect class="cls-1" x="636.41" y="721.55" width="13" height="76"/><rect class="cls-1" x="649.41" y="721.55" width="13" height="76"/><rect class="cls-1" x="662.41" y="721.55" width="11" height="76"/><rect class="cls-1" x="673.41" y="721.55" width="12" height="76"/></g><path class="cls-1" d="M731.32,721.39V797.1H716.94V721.39Z" transform="translate(0.41 -0.45)"/><g class="cls-3"><rect class="cls-1" x="715.41" y="721.55" width="10" height="76"/><rect class="cls-1" x="725.41" y="721.55" width="6" height="76"/></g><path class="cls-1" d="M823.8,721.39V797.1H809.63L779.24,748V797.1H764.85V721.39h14.06l30.5,49.1v-49.1Z" transform="translate(0.41 -0.45)"/><g class="cls-4"><rect class="cls-1" x="765.41" y="721.55" width="11" height="76"/><rect class="cls-1" x="776.41" y="721.55" width="14" height="76"/><rect class="cls-1" x="790.41" y="721.55" width="12" height="76"/><rect class="cls-1" x="802.41" y="721.55" width="13" height="76"/><rect class="cls-1" x="815.41" y="721.55" width="10" height="76"/></g><path class="cls-1" d="M921.36,759.24c0,22.18-14.6,37.86-39.69,37.86H857.33V721.39h24.34C906.76,721.39,921.36,737.07,921.36,759.24Zm-14.38,0c0-14.38-9.74-24-25.64-24h-9.62v48.13h9.62C897.24,783.36,907,773.74,907,759.24Z" transform="translate(0.41 -0.45)"/><g class="cls-5"><rect class="cls-1" x="871.41" y="735.55" width="7" height="48"/><rect class="cls-1" x="878.41" y="735.55" width="13" height="48"/><rect class="cls-1" x="891.41" y="735.55" width="14" height="48"/><rect class="cls-1" x="905.41" y="735.55" width="2" height="48"/><rect class="cls-1" x="857.41" y="721.55" width="9" height="76"/><rect class="cls-1" x="866.41" y="721.55" width="12" height="76"/><rect class="cls-1" x="878.41" y="721.55" width="13" height="76"/><rect class="cls-1" x="891.41" y="721.55" width="14" height="76"/><rect class="cls-1" x="905.41" y="721.55" width="12" height="76"/><rect class="cls-1" x="917.41" y="721.55" width="3" height="76"/></g><path class="cls-1" d="M1037.85,768.33V797.1h-14.38V768.33l-26.39-46.94h16.55l17,31.47,17.09-31.47h16.44Z" transform="translate(0.41 -0.45)"/><g class="cls-6"><rect class="cls-1" x="997.41" y="721.55" width="11" height="76"/><rect class="cls-1" x="1008.41" y="721.55" width="13" height="76"/><rect class="cls-1" x="1021.41" y="721.55" width="13" height="76"/><rect class="cls-1" x="1034.41" y="721.55" width="13" height="76"/><rect class="cls-1" x="1047.41" y="721.55" width="11" height="76"/><rect class="cls-1" x="1058.41" y="721.55" width="6" height="76"/></g><path class="cls-1" d="M1157.05,759.35c0,21.74-14.93,38.61-36.67,38.61s-36.77-16.87-36.77-38.61,15-38.61,36.77-38.61S1157.05,737.61,1157.05,759.35Zm-14.71,0c0-13.84-8.22-24.23-22-24.23s-22.06,10.39-22.06,24.23,8.22,24.12,22.06,24.12S1142.34,773.09,1142.34,759.35Z" transform="translate(0.41 -0.45)"/><g class="cls-7"><rect class="cls-1" x="1099.41" y="735.55" width="11" height="48"/><rect class="cls-1" x="1110.41" y="735.55" width="12" height="48"/><rect class="cls-1" x="1122.41" y="735.55" width="14" height="48"/><rect class="cls-1" x="1136.41" y="735.55" width="6" height="48"/><rect class="cls-1" x="1083.41" y="721.55" width="1" height="76"/><rect class="cls-1" x="1084.41" y="721.55" width="13" height="76"/><rect class="cls-1" x="1097.41" y="721.55" width="13" height="76"/><rect class="cls-1" x="1110.41" y="721.55" width="12" height="76"/><rect class="cls-1" x="1122.41" y="721.55" width="14" height="76"/><rect class="cls-1" x="1136.41" y="721.55" width="14" height="76"/><rect class="cls-1" x="1150.41" y="721.55" width="7" height="76"/></g><path class="cls-1" d="M1245.31,721.39v46c0,18.93-11.47,30.61-29,30.61s-29-11.68-29-30.61v-46h14.39V767c0,10.17,5.52,16.44,14.6,16.44s14.6-6.27,14.6-16.44V721.39Z" transform="translate(0.41 -0.45)"/><g class="cls-8"><rect class="cls-1" x="1188.41" y="720.73" height="76.38"/><rect class="cls-1" x="1188.41" y="721.55" width="13" height="76"/><rect class="cls-1" x="1201.41" y="721.55" width="12" height="76"/><rect class="cls-1" x="1213.41" y="721.55" width="13" height="76"/><rect class="cls-1" x="1226.41" y="721.55" width="14" height="76"/><rect class="cls-1" x="1240.41" y="721.55" width="5" height="76"/></g><path class="cls-1" d="M1303.18,771.14h-10.5v26H1278.3V721.39h28c16.88,0,26.29,11,26.29,24.87,0,10.17-5,18.82-14.39,22.72l16.23,28.12h-16.23Zm-10.5-13.73H1306c7.14,0,11.68-4.66,11.68-11.15s-4.54-11-11.68-11h-13.31Z" transform="translate(0.41 -0.45)"/><g class="cls-9"><rect class="cls-1" x="1293.41" y="735.55" width="10" height="22"/><rect class="cls-1" x="1303.41" y="735.55" width="13" height="22"/><rect class="cls-1" x="1316.41" y="735.55" width="2" height="22"/><rect class="cls-1" x="1279.41" y="721.55" width="11" height="76"/><rect class="cls-1" x="1290.41" y="721.55" width="13" height="76"/><rect class="cls-1" x="1303.41" y="721.55" width="13" height="76"/><rect class="cls-1" x="1316.41" y="721.55" width="13" height="76"/><rect class="cls-1" x="1329.41" y="721.55" width="5" height="76"/></g><path class="cls-1" d="M1456.33,780H1430.7l-5.84,17.09h-16.34l27.69-75.71h14.71l27.69,75.71h-16.33Zm-4.76-13.74-8-23.25-8,23.25Z" transform="translate(0.41 -0.45)"/><g class="cls-10"><rect class="cls-1" x="1435.41" y="741.55" width="10" height="24"/><rect class="cls-1" x="1445.41" y="741.55" width="6" height="24"/><rect class="cls-1" x="1408.41" y="721.55" width="12" height="76"/><rect class="cls-1" x="1420.41" y="721.55" width="12" height="76"/><rect class="cls-1" x="1432.41" y="721.55" width="13" height="76"/><rect class="cls-1" x="1445.41" y="721.55" width="12" height="76"/><rect class="cls-1" x="1457.41" y="721.55" width="12" height="76"/><rect class="cls-1" x="1469.41" y="721.55" width="10" height="76"/></g><path class="cls-1" d="M1571.31,759.24c0,22.18-14.6,37.86-39.69,37.86h-24.34V721.39h24.34C1556.71,721.39,1571.31,737.07,1571.31,759.24Zm-14.38,0c0-14.38-9.74-24-25.64-24h-9.62v48.13h9.62C1547.19,783.36,1556.93,773.74,1556.93,759.24Z" transform="translate(0.41 -0.45)"/><g class="cls-11"><rect class="cls-1" x="1523.41" y="735.55" width="12" height="48"/><rect class="cls-1" x="1535.41" y="735.55" width="13" height="48"/><rect class="cls-1" x="1548.41" y="735.55" width="9" height="48"/><rect class="cls-1" x="1507.41" y="721.55" width="1" height="76"/><rect class="cls-1" x="1508.41" y="721.55" width="14" height="76"/><rect class="cls-1" x="1522.41" y="721.55" width="13" height="76"/><rect class="cls-1" x="1535.41" y="721.55" width="13" height="76"/><rect class="cls-1" x="1548.41" y="721.55" width="12" height="76"/><rect class="cls-1" x="1560.41" y="721.55" width="12" height="76"/></g><path class="cls-1" d="M1663.46,721.39,1636.1,797.1h-14.71L1594,721.39h16l18.71,54.08,18.72-54.08Z" transform="translate(0.41 -0.45)"/><g class="cls-12"><rect class="cls-1" x="1595.41" y="721.55" width="4" height="76"/><rect class="cls-1" x="1599.41" y="721.55" width="13" height="76"/><rect class="cls-1" x="1612.41" y="721.55" width="13" height="76"/><rect class="cls-1" x="1625.41" y="721.55" width="12" height="76"/><rect class="cls-1" x="1637.41" y="721.55" width="12" height="76"/><rect class="cls-1" x="1649.41" y="721.55" width="14" height="76"/><rect class="cls-1" x="1663.41" y="721.55" width="1" height="76"/></g><path class="cls-1" d="M1742.42,783.36V797.1h-50.29V721.39h49.64v13.84h-35.26v17.2h31.91v13.74h-31.91v17.19Z" transform="translate(0.41 -0.45)"/><g class="cls-13"><rect class="cls-1" x="1693.41" y="721.55" width="7" height="76"/><rect class="cls-1" x="1700.41" y="721.55" width="13" height="76"/><rect class="cls-1" x="1713.41" y="721.55" width="13" height="76"/><rect class="cls-1" x="1726.41" y="721.55" width="13" height="76"/><rect class="cls-1" x="1739.41" y="721.55" width="3" height="76"/></g><path class="cls-1" d="M1833.28,721.39V797.1h-14.17L1788.72,748V797.1h-14.39V721.39h14.06l30.5,49.1v-49.1Z" transform="translate(0.41 -0.45)"/><g class="cls-14"><rect class="cls-1" x="1773.41" y="721.55" width="4" height="76"/><rect class="cls-1" x="1777.41" y="721.55" width="14" height="76"/><rect class="cls-1" x="1791.41" y="721.55" width="13" height="76"/><rect class="cls-1" x="1804.41" y="721.55" width="13" height="76"/><rect class="cls-1" x="1817.41" y="721.55" width="13" height="76"/><rect class="cls-1" x="1830.41" y="721.55" width="3" height="76"/></g><path class="cls-1" d="M1919.16,735.23h-20.33V797.1h-14.39V735.23h-20.33V721.39h55.05Z" transform="translate(0.41 -0.45)"/><g class="cls-15"><rect class="cls-1" x="1864.41" y="721.55" width="3" height="76"/><rect class="cls-1" x="1867.41" y="721.55" width="13" height="76"/><rect class="cls-1" x="1880.41" y="721.55" width="13" height="76"/><rect class="cls-1" x="1893.41" y="721.55" width="13" height="76"/><rect class="cls-1" x="1906.41" y="721.55" width="13" height="76"/></g><path class="cls-1" d="M2007.42,721.39v46c0,18.93-11.46,30.61-29,30.61s-29-11.68-29-30.61v-46h14.38V767c0,10.17,5.52,16.44,14.6,16.44S1993,777.2,1993,767V721.39Z" transform="translate(0.41 -0.45)"/><g class="cls-16"><rect class="cls-1" x="1949.41" y="721.55" width="9" height="76"/><rect class="cls-1" x="1958.41" y="721.55" width="13" height="76"/><rect class="cls-1" x="1971.41" y="721.55" width="12" height="76"/><rect class="cls-1" x="1983.41" y="721.55" width="13" height="76"/><rect class="cls-1" x="1996.41" y="721.55" width="12" height="76"/></g><path class="cls-1" d="M2065.29,771.14h-10.5v26h-14.38V721.39h28c16.88,0,26.29,11,26.29,24.87,0,10.17-5,18.82-14.39,22.72l16.22,28.12h-16.22Zm-10.5-13.73h13.31c7.14,0,11.68-4.66,11.68-11.15s-4.54-11-11.68-11h-13.31Z" transform="translate(0.41 -0.45)"/><g class="cls-17"><rect class="cls-1" x="2054.41" y="735.55" width="6" height="22"/><rect class="cls-1" x="2060.41" y="735.55" width="13" height="22"/><rect class="cls-1" x="2073.41" y="735.55" width="6" height="22"/><rect class="cls-1" x="2040.41" y="721.55" width="7" height="76"/><rect class="cls-1" x="2047.41" y="721.55" width="13" height="76"/><rect class="cls-1" x="2060.41" y="721.55" width="13" height="76"/><rect class="cls-1" x="2073.41" y="721.55" width="13" height="76"/><rect class="cls-1" x="2086.41" y="721.55" width="11" height="76"/></g><path class="cls-1" d="M2176,783.36V797.1h-50.29V721.39h49.64v13.84h-35.26v17.2H2172v13.74h-31.91v17.19Z" transform="translate(0.41 -0.45)"/><g class="cls-18"><rect class="cls-1" x="2126.41" y="721.55" width="11" height="76"/><rect class="cls-1" x="2137.41" y="721.55" width="13" height="76"/><rect class="cls-1" x="2150.41" y="721.55" width="14" height="76"/><rect class="cls-1" x="2164.41" y="721.55" width="13" height="76"/><path class="cls-1" d="M2177,797.1v0Z" transform="translate(0.41 -0.45)"/></g></svg>