<svg xmlns="http://www.w3.org/2000/svg" viewBox="0 0 32 24"><defs><style>.cls-1{fill:#fff;}</style></defs><title>logo</title><g id="Layer_2" data-name="Layer 2"><g id="Layer_1-2" data-name="Layer 1"><path class="cls-1" d="M2.56,20.09a1.88,1.88,0,0,1-1.82-.45,4,4,0,0,1,.08-4.73,4,4,0,0,1,2.55-1.58.31.31,0,1,1,.09.61A3.46,3.46,0,0,0,1.3,15.3a3.35,3.35,0,0,0-.11,3.91A1.48,1.48,0,0,0,3,19.27a3.86,3.86,0,0,0,1.3-1.68c.12-.24.22-.48.32-.73s-.1-.59-.15-.87A32.37,32.37,0,0,1,3.8,9.75c0-.52.06-2.2.8-2.25.2,0,.48.08.66.57a12.68,12.68,0,0,1,0,8.86l0,.1c0,.32.67,1.53,1,1.49.71-.07,1-1.61,1.25-2.63,0-.16.07-.32.1-.47.22-.95.41-2,.54-3a2,2,0,0,1-.78-.71,1.8,1.8,0,0,1-.22-1.33,1.08,1.08,0,0,1,.5-.7.61.61,0,0,1,.64.06c.18.11.73.57.59,1.82,0,.15,0,.29-.05.44a1.57,1.57,0,0,0,.3,0,3.27,3.27,0,0,0,1.54-.35.29.29,0,0,1,.33,0,.3.3,0,0,1,.09.33,11.93,11.93,0,0,0-.55,3.74.74.74,0,0,0,.64.79,1.3,1.3,0,0,0,1-.45,3.3,3.3,0,0,0,.75-1.32c.05-.2.09-.39.12-.56,0-.46.08-.89.14-1.36h0c0-.32.07-.7.15-1.18a.31.31,0,0,1,.61.08c0,.44-.09.81-.14,1.17,0,.11,0,.21,0,.31,0,.35-.06.67-.12,1.05a5.87,5.87,0,0,0,.09,1.34.88.88,0,0,0,.38.61.56.56,0,0,0,.49.05c1.58-.51,2.23-2.46,2.51-4,.12-.66.18-1.34.25-2a15.67,15.67,0,0,1,.53-3.23,3.52,3.52,0,0,1,1-1.67,1.78,1.78,0,0,1,2-.25.32.32,0,0,1,.1.43.31.31,0,0,1-.43.1,1.16,1.16,0,0,0-1.3.2,2.81,2.81,0,0,0-.8,1.38,15.31,15.31,0,0,0-.5,3.1c-.07.67-.13,1.36-.26,2-.3,1.72-1.06,3.89-2.92,4.49a1.15,1.15,0,0,1-1-.11,1.48,1.48,0,0,1-.66-1,4.09,4.09,0,0,1-.52.7,1.84,1.84,0,0,1-1.58.65,1.38,1.38,0,0,1-1.13-1.36,11.47,11.47,0,0,1,.41-3.35,3.46,3.46,0,0,1-1.24.17l-.34-.05c-.13,1-.32,2-.53,3,0,.15-.06.3-.1.46-.28,1.34-.64,3-1.79,3.12-.66.07-1.2-.74-1.49-1.36l0,.08A4.47,4.47,0,0,1,3.29,19.8,2.48,2.48,0,0,1,2.56,20.09ZM4.65,8.21a4.21,4.21,0,0,0-.22,1.54A30.94,30.94,0,0,0,5,15.59a12.2,12.2,0,0,0-.31-7.3Zm3.3,2a.46.46,0,0,0-.18.29,1.18,1.18,0,0,0,.15.85,1.16,1.16,0,0,0,.34.36,1.94,1.94,0,0,0,0-.24C8.37,10.62,8.07,10.27,8,10.22Z"/><path class="cls-1" d="M13.93,10.14a.26.26,0,0,1-.15,0,.3.3,0,0,1-.22-.38,2.62,2.62,0,0,0,.09-.56.3.3,0,0,1,.31-.3.32.32,0,0,1,.31.32,3.39,3.39,0,0,1-.11.71A.32.32,0,0,1,13.93,10.14Z"/><path class="cls-1" d="M18.14,19.79a1.34,1.34,0,0,1-1.27-.42c-.58-.54-.46-1.84-.3-2.91.14-.88.28-1.74.41-2.6l.27-1.67a3.21,3.21,0,0,0-.93-.12.32.32,0,0,1-.32-.31.31.31,0,0,1,.31-.31,3.61,3.61,0,0,1,1,.12l0-.3a.31.31,0,0,1,.62.09c0,.14-.05.28-.07.42a4.23,4.23,0,0,1,2.33,2.85,3.54,3.54,0,0,1,.1,1.33c-.09.8-.77,3.3-2.07,3.78Zm-.3-7.37c-.08.52-.16,1-.24,1.53-.14.87-.28,1.73-.41,2.6-.25,1.64-.08,2.19.1,2.36.38.35.64.31.8.25.84-.31,1.56-2.3,1.67-3.27a3,3,0,0,0-.09-1.1A3.66,3.66,0,0,0,17.84,12.42Z"/><path class="cls-1" d="M22.35,12.16H22.3a.3.3,0,0,1-.33-.29,20.48,20.48,0,0,1,0-2.36,11.82,11.82,0,0,1-5.55,2.56.32.32,0,0,1-.37-.25.31.31,0,0,1,.25-.36A10.87,10.87,0,0,0,22,8.57c.17-2,.6-4,1.29-4.76a.31.31,0,0,1,.31-.1.32.32,0,0,1,.23.22c.41,1.57-.61,4.09-1,4.64l-.2.25a23.26,23.26,0,0,0,0,3A.32.32,0,0,1,22.35,12.16Zm.94-7a11,11,0,0,0-.49,2.06A8.39,8.39,0,0,0,23.29,5.12Z"/><path class="cls-1" d="M22.66,8.8a12.28,12.28,0,0,1-2.07.3.31.31,0,0,1-.33-.29.3.3,0,0,1,.28-.33,12.35,12.35,0,0,0,4.1-1,.31.31,0,1,1,.24.57A12.2,12.2,0,0,1,22.66,8.8Z"/><path class="cls-1" d="M24.33,15.06a1.5,1.5,0,0,1-1.25-.22c-.64-.45-1-1.45-1.11-3a.31.31,0,0,1,.62,0c.11,1.65.52,2.27.85,2.5a.9.9,0,0,0,.81.11c.77-.21,1.46-1.81,1.78-3.19.22-1,.4-2,.54-3a2,2,0,0,1-.79-.71,1.84,1.84,0,0,1-.22-1.33,1.09,1.09,0,0,1,.51-.7.61.61,0,0,1,.64.06c.17.11.72.57.59,1.82,0,.15,0,.29-.05.44a1.47,1.47,0,0,0,.29,0,3.27,3.27,0,0,0,1.54-.35.3.3,0,0,1,.34,0,.32.32,0,0,1,.09.33A11.65,11.65,0,0,0,29,11.61a.74.74,0,0,0,.64.79,1.23,1.23,0,0,0,1-.45,3.19,3.19,0,0,0,.75-1.32.31.31,0,0,1,.38-.22.3.3,0,0,1,.22.38,3.78,3.78,0,0,1-.88,1.57,1.86,1.86,0,0,1-1.59.65,1.36,1.36,0,0,1-1.12-1.36,11.78,11.78,0,0,1,.4-3.35,3.46,3.46,0,0,1-1.24.17,1.88,1.88,0,0,1-.33-.05c-.14,1-.32,2-.53,3-.13.55-.81,3.27-2.22,3.66Zm2-9a.52.52,0,0,0-.17.29,1.16,1.16,0,0,0,.14.85,1.29,1.29,0,0,0,.34.36l0-.24C26.77,6.44,26.47,6.1,26.34,6Z"/><path class="cls-1" d="M15.78,23.86A11.85,11.85,0,0,1,7.1,20.11a.31.31,0,1,1,.45-.43,11.31,11.31,0,0,0,19.14-4.79.32.32,0,0,1,.61.16A12,12,0,0,1,15.78,23.86Z"/><path class="cls-1" d="M5.44,6.94a.23.23,0,0,1-.14,0,.31.31,0,0,1-.14-.41A11.94,11.94,0,0,1,23,2.4a.31.31,0,0,1,.06.43.32.32,0,0,1-.44.07A11.29,11.29,0,0,0,5.72,6.77.32.32,0,0,1,5.44,6.94Z"/></g></g></svg>
