<?xml version="1.0" encoding="UTF-8"?>
<!DOCTYPE svg PUBLIC "-//W3C//DTD SVG 1.1//EN" "http://www.w3.org/Graphics/SVG/1.1/DTD/svg11.dtd">
<!-- Creator: CorelDRAW X6 -->
<svg xmlns="http://www.w3.org/2000/svg" xml:space="preserve" width="41.6667in" height="27.7778in" version="1.1" style="shape-rendering:geometricPrecision; text-rendering:geometricPrecision; image-rendering:optimizeQuality; fill-rule:evenodd; clip-rule:evenodd"
viewBox="0 0 41667 27778"
 xmlns:xlink="http://www.w3.org/1999/xlink">
 <defs>
  <style type="text/css">
   <![CDATA[
    .fil1 {fill:white;fill-rule:nonzero}
    .fil0 {fill:url(#id0)}
   ]]>
  </style>
 </defs>
 <g id="Layer_x0020_1">
  <metadata id="CorelCorpID_0Corel-Layer"/>
  <path class="fil1" d="M4480 8992l1618 0 2082 5901 1606 -4450c222,-611 512,-1021 869,-1231 357,-210 781,-283 1273,-220l-2998 8304 -1523 0 -2927 -8304z"/>
  <path class="fil1" d="M15497 14917c-428,111 -819,151 -1172,119 -353,-32 -642,-117 -868,-256 -226,-139 -377,-325 -452,-559 -75,-234 -54,-498 65,-791 246,206 531,319 857,339 325,20 638,14 940,-18 254,-24 446,-79 577,-167 131,-87 212,-188 244,-303 32,-115 20,-236 -36,-363 -56,-127 -145,-242 -268,-345 -123,-103 -274,-186 -452,-250 -178,-63 -375,-91 -589,-83 -230,16 -448,71 -654,167 -206,95 -389,226 -547,393 -159,167 -286,361 -381,583 -95,222 -147,468 -155,738 -8,222 18,440 77,654 59,214 149,410 268,589 119,178 262,329 428,452 167,123 357,200 571,232 301,56 611,36 928,-59 317,-95 599,-270 845,-524l1249 607c-325,484 -710,831 -1154,1041 -444,210 -952,315 -1523,315 -532,0 -998,-93 -1398,-280 -401,-186 -734,-434 -999,-744 -266,-309 -464,-660 -595,-1053 -131,-393 -192,-793 -184,-1202 8,-408 87,-809 238,-1202 151,-393 369,-739 654,-1041 317,-341 688,-583 1112,-726 424,-143 858,-214 1303,-214 492,0 916,83 1273,250 357,167 646,379 868,637 222,258 369,543 440,857 71,313 65,617 -18,910 -83,293 -248,557 -494,791 -246,234 -579,403 -999,506z"/>
  <path class="fil1" d="M18959 11847c63,-143 161,-266 291,-369 131,-103 276,-190 434,-262 159,-71 321,-127 488,-167 167,-40 321,-63 464,-71 301,-16 599,26 892,125 293,99 563,272 809,518 357,373 535,908 535,1606l0 4069 -1523 0c0,-135 2,-317 6,-547 4,-230 6,-482 6,-756 0,-274 0,-557 0,-851 0,-293 -4,-571 -12,-833 -8,-262 -20,-496 -36,-702 -16,-206 -36,-357 -59,-452 -64,-254 -184,-444 -363,-571 -179,-127 -371,-190 -577,-190 -270,0 -480,73 -631,220 -151,147 -226,339 -226,577 -95,-32 -190,-97 -286,-196 -95,-99 -167,-204 -214,-315l0 4616 -1535 0 0 -6163 1535 0 0 714z"/>
  <path class="fil1" d="M24051 10182c0,-222 42,-410 125,-565 83,-155 194,-280 333,-375 139,-95 299,-165 482,-208 182,-43 369,-65 559,-65l0 2213 1380 0c0,159 -14,313 -42,464 -28,151 -81,288 -161,410 -79,123 -186,222 -321,297 -135,75 -309,113 -523,113l-333 0 0 3367c0,127 47,216 143,268 95,52 206,76 333,71 127,-4 254,-34 381,-89 127,-55 218,-131 274,-226 103,262 109,494 18,696 -91,202 -234,365 -428,488 -194,123 -420,202 -678,238 -258,36 -500,16 -726,-60 -226,-75 -418,-210 -577,-404 -159,-194 -238,-458 -238,-791l0 -3557 -761 0 0 -1285 761 0 0 -999z"/>
  <path class="fil1" d="M31166 8409c222,0 412,79 571,238 158,151 238,341 238,571 0,230 -80,421 -238,571 -159,159 -349,238 -571,238 -206,0 -397,-79 -571,-238 -159,-159 -238,-349 -238,-571 0,-222 79,-412 238,-571 175,-159 365,-238 571,-238zm-2486 0c222,0 412,79 571,238 159,159 238,349 238,571 0,222 -79,413 -238,571 -159,159 -349,238 -571,238 -222,0 -413,-79 -571,-238 -159,-159 -238,-349 -238,-571 0,-222 79,-412 238,-571 159,-159 349,-238 571,-238zm107 2736l0 2951c0,143 2,296 6,458 4,163 20,321 47,476 28,155 75,299 143,434 67,135 168,250 303,345 87,63 188,111 303,143 115,32 232,47 351,47 119,0 234,-16 345,-47 111,-32 214,-79 309,-143 135,-87 236,-196 304,-327 67,-131 115,-272 143,-422 28,-151 41,-305 41,-464 0,-159 0,-309 0,-452l0 -1773c-8,-428 131,-747 416,-958 285,-210 658,-307 1118,-291l0 2617c8,539 -10,989 -54,1350 -44,361 -109,645 -196,851 -230,532 -555,912 -976,1142 -420,230 -912,345 -1475,345 -611,0 -1134,-135 -1571,-405 -436,-270 -749,-702 -940,-1297 -56,-182 -99,-430 -131,-744 -32,-313 -48,-656 -48,-1029l0 -2808 1559 0z"/>
  <path class="fil1" d="M33165 11110l1332 0 0 785c135,-278 307,-498 517,-660 210,-162 442,-252 696,-268 333,-24 603,38 809,184 206,147 351,325 434,535 84,210 105,424 66,642 -40,218 -147,391 -321,518 -72,-198 -208,-327 -410,-387 -202,-60 -415,-52 -637,24 -222,75 -422,216 -601,422 -178,206 -284,476 -315,809 -16,190 -24,379 -24,565 0,187 0,359 0,517l0 2498 -1547 0 0 -6187z"/>
  <path class="fil1" d="M4480 8992l1618 0 2082 5901 1606 -4450c222,-611 512,-1021 869,-1231 357,-210 781,-283 1273,-220l-2998 8304 -1523 0 -2927 -8304z"/>
  <path class="fil1" d="M15497 14917c-428,111 -819,151 -1172,119 -353,-32 -642,-117 -868,-256 -226,-139 -377,-325 -452,-559 -75,-234 -54,-498 65,-791 246,206 531,319 857,339 325,20 638,14 940,-18 254,-24 446,-79 577,-167 131,-87 212,-188 244,-303 32,-115 20,-236 -36,-363 -56,-127 -145,-242 -268,-345 -123,-103 -274,-186 -452,-250 -178,-63 -375,-91 -589,-83 -230,16 -448,71 -654,167 -206,95 -389,226 -547,393 -159,167 -286,361 -381,583 -95,222 -147,468 -155,738 -8,222 18,440 77,654 59,214 149,410 268,589 119,178 262,329 428,452 167,123 357,200 571,232 301,56 611,36 928,-59 317,-95 599,-270 845,-524l1249 607c-325,484 -710,831 -1154,1041 -444,210 -952,315 -1523,315 -532,0 -998,-93 -1398,-280 -401,-186 -734,-434 -999,-744 -266,-309 -464,-660 -595,-1053 -131,-393 -192,-793 -184,-1202 8,-408 87,-809 238,-1202 151,-393 369,-739 654,-1041 317,-341 688,-583 1112,-726 424,-143 858,-214 1303,-214 492,0 916,83 1273,250 357,167 646,379 868,637 222,258 369,543 440,857 71,313 65,617 -18,910 -83,293 -248,557 -494,791 -246,234 -579,403 -999,506z"/>
  <path class="fil1" d="M18959 11847c63,-143 161,-266 291,-369 131,-103 276,-190 434,-262 159,-71 321,-127 488,-167 167,-40 321,-63 464,-71 301,-16 599,26 892,125 293,99 563,272 809,518 357,373 535,908 535,1606l0 4069 -1523 0c0,-135 2,-317 6,-547 4,-230 6,-482 6,-756 0,-274 0,-557 0,-851 0,-293 -4,-571 -12,-833 -8,-262 -20,-496 -36,-702 -16,-206 -36,-357 -59,-452 -64,-254 -184,-444 -363,-571 -179,-127 -371,-190 -577,-190 -270,0 -480,73 -631,220 -151,147 -226,339 -226,577 -95,-32 -190,-97 -286,-196 -95,-99 -167,-204 -214,-315l0 4616 -1535 0 0 -6163 1535 0 0 714z"/>
  <path class="fil1" d="M24051 10182c0,-222 42,-410 125,-565 83,-155 194,-280 333,-375 139,-95 299,-165 482,-208 182,-43 369,-65 559,-65l0 2213 1380 0c0,159 -14,313 -42,464 -28,151 -81,288 -161,410 -79,123 -186,222 -321,297 -135,75 -309,113 -523,113l-333 0 0 3367c0,127 47,216 143,268 95,52 206,76 333,71 127,-4 254,-34 381,-89 127,-55 218,-131 274,-226 103,262 109,494 18,696 -91,202 -234,365 -428,488 -194,123 -420,202 -678,238 -258,36 -500,16 -726,-60 -226,-75 -418,-210 -577,-404 -159,-194 -238,-458 -238,-791l0 -3557 -761 0 0 -1285 761 0 0 -999z"/>
  <path class="fil1" d="M31166 8409c222,0 412,79 571,238 158,151 238,341 238,571 0,230 -80,421 -238,571 -159,159 -349,238 -571,238 -206,0 -397,-79 -571,-238 -159,-159 -238,-349 -238,-571 0,-222 79,-412 238,-571 175,-159 365,-238 571,-238zm-2486 0c222,0 412,79 571,238 159,159 238,349 238,571 0,222 -79,413 -238,571 -159,159 -349,238 -571,238 -222,0 -413,-79 -571,-238 -159,-159 -238,-349 -238,-571 0,-222 79,-412 238,-571 159,-159 349,-238 571,-238zm107 2736l0 2951c0,143 2,296 6,458 4,163 20,321 47,476 28,155 75,299 143,434 67,135 168,250 303,345 87,63 188,111 303,143 115,32 232,47 351,47 119,0 234,-16 345,-47 111,-32 214,-79 309,-143 135,-87 236,-196 304,-327 67,-131 115,-272 143,-422 28,-151 41,-305 41,-464 0,-159 0,-309 0,-452l0 -1773c-8,-428 131,-747 416,-958 285,-210 658,-307 1118,-291l0 2617c8,539 -10,989 -54,1350 -44,361 -109,645 -196,851 -230,532 -555,912 -976,1142 -420,230 -912,345 -1475,345 -611,0 -1134,-135 -1571,-405 -436,-270 -749,-702 -940,-1297 -56,-182 -99,-430 -131,-744 -32,-313 -48,-656 -48,-1029l0 -2808 1559 0z"/>
  <path class="fil1" d="M33165 11110l1332 0 0 785c135,-278 307,-498 517,-660 210,-162 442,-252 696,-268 333,-24 603,38 809,184 206,147 351,325 434,535 84,210 105,424 66,642 -40,218 -147,391 -321,518 -72,-198 -208,-327 -410,-387 -202,-60 -415,-52 -637,24 -222,75 -422,216 -601,422 -178,206 -284,476 -315,809 -16,190 -24,379 -24,565 0,187 0,359 0,517l0 2498 -1547 0 0 -6187z"/>
  <polygon class="fil1" points="13511,18614 13511,18853 13900,18853 13900,19044 13511,19044 13511,19474 13311,19474 13311,18422 14000,18422 14000,18614 "/>
  <polygon class="fil1" points="14444,19474 14643,19474 14643,18422 14444,18422 "/>
  <polygon class="fil1" points="15928,18422 15928,19474 15731,19474 15309,18792 15309,19474 15109,19474 15109,18422 15304,18422 15728,19104 15728,18422 "/>
  <path class="fil1" d="M17083 18948c0,-200 -135,-333 -356,-333l-134 0 0 668 134 0c221,0 356,-134 356,-335zm200 0c0,308 -203,526 -551,526l-338 0 0 -1052 338 0c348,0 551,218 551,526z"/>
  <polygon class="fil1" points="18901,19074 18901,19474 18701,19474 18701,19074 18334,18422 18564,18422 18800,18859 19037,18422 19266,18422 "/>
  <path class="fil1" d="M20352 18949c0,-192 -114,-337 -305,-337 -192,0 -306,144 -306,337 0,191 114,335 306,335 191,0 305,-144 305,-335zm204 0c0,302 -207,536 -509,536 -302,0 -511,-234 -511,-536 0,-302 209,-536 511,-536 302,0 509,234 509,536z"/>
  <path class="fil1" d="M21782 18422l0 638c0,263 -159,425 -403,425 -245,0 -403,-162 -403,-425l0 -638 200 0 0 634c0,141 77,228 203,228 125,0 203,-87 203,-228l0 -634 200 0z"/>
  <path class="fil1" d="M22440 18922l185 0c99,0 162,-65 162,-155 0,-90 -63,-153 -162,-153l-185 0 0 308zm146 191l-146 0 0 361 -200 0 0 -1052 389 0c234,0 365,153 365,345 0,141 -69,261 -200,316l225 391 -225 0 -209 -361z"/>
  <path class="fil1" d="M24647 19045l-111 -323 -111 323 222 0zm66 191l-356 0 -81 237 -227 0 385 -1052 204 0 385 1052 -227 0 -83 -237z"/>
  <path class="fil1" d="M26110 18948c0,-200 -135,-333 -356,-333l-134 0 0 668 134 0c221,0 356,-134 356,-335zm200 0c0,308 -203,526 -551,526l-338 0 0 -1052 338 0c348,0 551,218 551,526z"/>
  <polygon class="fil1" points="27590,18422 27210,19474 27005,19474 26625,18422 26848,18422 27108,19173 27368,18422 "/>
  <polygon class="fil1" points="28686,19283 28686,19474 27988,19474 27988,18422 28677,18422 28677,18614 28188,18614 28188,18853 28631,18853 28631,19044 28188,19044 28188,19283 "/>
  <polygon class="fil1" points="29948,18422 29948,19474 29751,19474 29329,18792 29329,19474 29129,19474 29129,18422 29325,18422 29748,19104 29748,18422 "/>
  <polygon class="fil1" points="31141,18614 30859,18614 30859,19474 30659,19474 30659,18614 30377,18614 30377,18422 31141,18422 "/>
  <path class="fil1" d="M32367 18422l0 638c0,263 -159,425 -403,425 -245,0 -402,-162 -402,-425l0 -638 200 0 0 634c0,141 77,228 203,228 125,0 203,-87 203,-228l0 -634 200 0z"/>
  <path class="fil1" d="M33025 18922l185 0c99,0 162,-65 162,-155 0,-90 -63,-153 -162,-153l-185 0 0 308zm146 191l-146 0 0 361 -200 0 0 -1052 389 0c235,0 365,153 365,345 0,141 -69,261 -200,316l226 391 -226 0 -209 -361z"/>
  <polygon class="fil1" points="34709,19283 34709,19474 34010,19474 34010,18422 34700,18422 34700,18614 34210,18614 34210,18853 34653,18853 34653,19044 34210,19044 34210,19283 "/>
  <polygon class="fil1" points="13511,18614 13511,18853 13900,18853 13900,19044 13511,19044 13511,19474 13311,19474 13311,18422 14000,18422 14000,18614 "/>
  <polygon class="fil1" points="13319,18422 13319,19474 "/>
  <polygon class="fil1" points="13500,19474 13500,18431 13319,18431 13319,19474 "/>
  <polygon class="fil1" points="13681,19044 13681,18853 13511,18853 13511,18614 13681,18614 13681,18431 13500,18431 13500,19474 13511,19474 13511,19044 "/>
  <path class="fil1" d="M13833 19044l0 -191 -153 0 0 191 153 0zm0 -430l0 -184 -153 0 0 184 153 0z"/>
  <path class="fil1" d="M14000 18614l0 -184 -167 0 0 184 167 0zm-167 239l0 191 66 0 0 -191 -66 0z"/>
  <polygon class="fil1" points="14444,19474 14643,19474 14643,18422 14444,18422 "/>
  <polygon class="fil1" points="14556,19474 14556,18431 14444,18431 14444,19474 "/>
  <polygon class="fil1" points="14639,19474 14639,18431 14556,18431 14556,19474 "/>
  <polygon class="fil1" points="15928,18422 15928,19474 15731,19474 15309,18792 15309,19474 15109,19474 15109,18422 15304,18422 15728,19104 15728,18422 "/>
  <polygon class="fil1" points="15264,19474 15264,18431 15111,18431 15111,19474 "/>
  <polygon class="fil1" points="15458,19033 15458,18670 15310,18431 15264,18431 15264,19474 15309,19474 15309,18792 "/>
  <polygon class="fil1" points="15625,19302 15625,18938 15458,18670 15458,19033 "/>
  <polygon class="fil1" points="15806,19474 15806,18431 15728,18431 15728,19104 15625,18938 15625,19302 15731,19474 "/>
  <polygon class="fil1" points="15928,18431 15806,18431 15806,19474 15928,19474 "/>
  <path class="fil1" d="M17083 18948c0,-200 -135,-333 -356,-333l-134 0 0 668 134 0c221,0 356,-134 356,-335zm200 0c0,308 -203,526 -551,526l-338 0 0 -1052 338 0c348,0 551,218 551,526z"/>
  <polygon class="fil1" points="16583,19292 16681,19292 16681,19283 16593,19283 16593,18625 16583,18625 "/>
  <path class="fil1" d="M16681 19292l181 0 0 -28c-40,13 -85,19 -134,19l-46 0 0 9zm181 -658l0 -8 -32 0c11,2 22,5 32,8z"/>
  <path class="fil1" d="M16861 19292l194 0 0 -200c-35,83 -102,143 -194,171l0 28zm194 -487l0 -179 -194 0 0 8c92,29 160,89 194,171z"/>
  <path class="fil1" d="M17056 19292l28 0 0 -667 -28 0 0 179c18,42 27,91 27,143 0,53 -9,102 -27,144l0 200z"/>
  <polygon class="fil1" points="16514,19474 16514,18431 16393,18431 16393,19474 "/>
  <polygon class="fil1" points="16681,19474 16681,19283 16593,19283 16593,18614 16681,18614 16681,18431 16514,18431 16514,19474 "/>
  <path class="fil1" d="M16861 19463l0 -199c-40,13 -85,19 -134,19l-46 0 0 191 51 0c46,0 89,-4 130,-11zm0 -829l0 -200c-5,-1 -10,-2 -15,-3l-165 0 0 184 46 0c49,0 94,7 134,19z"/>
  <path class="fil1" d="M17056 19391l0 -298c-35,83 -102,143 -194,171l0 199c74,-13 139,-38 194,-72zm0 -586l0 -299c-56,-34 -121,-59 -194,-72l0 200c92,29 160,89 194,171z"/>
  <path class="fil1" d="M17222 19212l0 -528c-38,-73 -95,-134 -167,-179l0 299c18,42 27,91 27,143 0,53 -9,102 -27,144l0 298c72,-45 128,-105 167,-179z"/>
  <path class="fil1" d="M17264 19103l0 -310c-10,-39 -24,-75 -42,-109l0 528c18,-34 32,-70 42,-109z"/>
  <polygon class="fil1" points="18901,19074 18901,19474 18701,19474 18701,19074 18334,18422 18564,18422 18800,18859 19037,18422 19266,18422 "/>
  <polygon class="fil1" points="18486,18692 18486,18431 18339,18431 "/>
  <polygon class="fil1" points="18667,19013 18667,18612 18569,18431 18486,18431 18486,18692 "/>
  <polygon class="fil1" points="18847,19474 18847,18772 18800,18859 18667,18612 18667,19013 18701,19074 18701,19474 "/>
  <polygon class="fil1" points="19028,18847 19028,18440 18847,18772 18847,19474 18901,19474 18901,19074 "/>
  <polygon class="fil1" points="19181,18574 19181,18431 19033,18431 19028,18440 19028,18847 "/>
  <polygon class="fil1" points="19261,18431 19181,18431 19181,18574 "/>
  <path class="fil1" d="M20352 18949c0,-192 -114,-337 -305,-337 -192,0 -306,144 -306,337 0,191 114,335 306,335 191,0 305,-144 305,-335zm204 0c0,302 -207,536 -509,536 -302,0 -511,-234 -511,-536 0,-302 209,-536 511,-536 302,0 509,234 509,536z"/>
  <path class="fil1" d="M19750 19292l153 0 0 -40c-79,-41 -132,-116 -153,-211l0 251zm153 -646l0 -21 -153 0 0 232c20,-95 73,-171 153,-212z"/>
  <path class="fil1" d="M19903 19292l167 0 0 -8c-7,0 -15,1 -22,1 -55,0 -103,-12 -144,-33l0 40zm53 -667l-53 0 0 21c16,-8 34,-15 53,-21z"/>
  <path class="fil1" d="M20069 19292l194 0 0 -96c-48,51 -114,82 -194,87l0 8zm194 -591l0 -76 -126 0c50,14 92,41 126,76z"/>
  <path class="fil1" d="M20264 19292l83 0 0 -277c-11,72 -39,135 -83,182l0 96zm83 -408l0 -259 -83 0 0 76c44,47 73,110 83,182z"/>
  <path class="fil1" d="M19542 19032l0 -166c-4,27 -5,55 -5,83 0,28 2,56 5,83z"/>
  <path class="fil1" d="M19722 19372l0 -846c-98,81 -162,201 -181,340l0 166c18,139 83,258 181,340z"/>
  <path class="fil1" d="M19903 19466l0 -215c-104,-53 -162,-166 -162,-302 0,-138 59,-251 162,-304l0 -213c-68,19 -129,51 -181,94l0 846c52,43 112,75 181,94z"/>
  <path class="fil1" d="M20069 19485l0 -201c-7,0 -15,1 -22,1 -55,0 -103,-12 -144,-33l0 215c45,13 93,19 144,19 8,0 15,0 22,0zm0 -872l0 -183 -160 0c-2,1 -4,1 -6,2l0 213c41,-21 90,-33 144,-33 8,0 15,0 22,1z"/>
  <path class="fil1" d="M20264 19440l0 -244c-48,51 -114,82 -194,87l0 201c71,-3 136,-19 194,-45zm0 -739l0 -242c-25,-12 -52,-21 -79,-28l-115 0 0 183c81,5 147,37 194,88z"/>
  <path class="fil1" d="M20458 19277l0 -655c-49,-71 -115,-127 -194,-163l0 242c57,61 88,148 88,248 0,100 -31,187 -88,247l0 244c79,-36 145,-93 194,-163z"/>
  <path class="fil1" d="M20556 18979l0 -60c-5,-113 -40,-215 -97,-297l0 655c58,-83 92,-185 97,-297z"/>
  <path class="fil1" d="M21782 18422l0 638c0,263 -159,425 -403,425 -245,0 -403,-162 -403,-425l0 -638 200 0 0 634c0,141 77,228 203,228 125,0 203,-87 203,-228l0 -634 200 0z"/>
  <polygon class="fil1" points="20986,19166 20986,18422 "/>
  <path class="fil1" d="M21167 19434l0 -1003 -181 0 0 735c23,123 86,215 181,268z"/>
  <path class="fil1" d="M21333 19484l0 -203c-98,-19 -157,-101 -157,-224l0 -625 -10 0 0 1003c48,27 104,44 167,50z"/>
  <path class="fil1" d="M21514 19467l0 -230c-34,31 -80,47 -134,47 -16,0 -32,-1 -46,-4l0 203c15,1 30,2 46,2 48,0 93,-6 134,-19z"/>
  <path class="fil1" d="M21708 19327l0 -896 -126 0 0 625c0,79 -25,142 -68,181l0 230c82,-25 148,-72 194,-140z"/>
  <path class="fil1" d="M21778 19133l0 -702 -69 0 0 896c36,-53 60,-118 69,-194z"/>
  <path class="fil1" d="M22440 18922l185 0c99,0 162,-65 162,-155 0,-90 -63,-153 -162,-153l-185 0 0 308zm146 191l-146 0 0 361 -200 0 0 -1052 389 0c234,0 365,153 365,345 0,141 -69,261 -200,316l225 391 -225 0 -209 -361z"/>
  <polygon class="fil1" points="22444,18931 22583,18931 22583,18922 22444,18922 "/>
  <path class="fil1" d="M22583 18931l181 0 0 -78c-27,43 -76,69 -139,69l-42 0 0 8zm181 -248l0 -57 -73 0c32,11 57,31 73,57z"/>
  <path class="fil1" d="M22764 18931l28 0 0 -306 -28 0 0 57c15,24 23,53 23,85 0,32 -8,62 -23,86l0 78z"/>
  <polygon class="fil1" points="22403,19474 22403,18431 22250,18431 22250,19474 "/>
  <polygon class="fil1" points="22583,19113 22583,18922 22440,18922 22440,18614 22583,18614 22583,18431 22403,18431 22403,19474 22440,19474 22440,19113 "/>
  <path class="fil1" d="M22764 19421l0 -568c-27,43 -76,69 -139,69l-42 0 0 191 3 0 178 308zm0 -738l0 -241c-14,-4 -28,-8 -43,-11l-137 0 0 184 42 0c64,0 112,26 139,68z"/>
  <path class="fil1" d="M22944 19474l0 -131 -150 -260c66,-27 116,-71 150,-127l0 -377c-39,-64 -100,-113 -181,-138l0 241c15,24 23,53 23,85 0,32 -8,62 -23,86l0 568 31 53 150 0z"/>
  <path class="fil1" d="M23014 19474l0 -11 -69 -120 0 131 69 0zm-69 -894l0 377c33,-54 50,-119 50,-189 0,-70 -17,-134 -50,-188z"/>
  <path class="fil1" d="M24647 19045l-111 -323 -111 323 222 0zm66 191l-356 0 -81 237 -227 0 385 -1052 204 0 385 1052 -227 0 -83 -237z"/>
  <polygon class="fil1" points="24417,19042 24426,19042 24536,18723 24556,18780 24556,18708 24417,18708 "/>
  <polygon class="fil1" points="24639,19022 24639,18708 24556,18708 24556,18780 "/>
  <polygon class="fil1" points="24208,19474 24208,19038 24049,19474 "/>
  <polygon class="fil1" points="24375,19236 24375,18582 24208,19038 24208,19474 24276,19474 24357,19236 "/>
  <polygon class="fil1" points="24556,19236 24556,19045 24425,19045 24536,18723 24556,18780 24556,18431 24430,18431 24375,18582 24375,19236 "/>
  <polygon class="fil1" points="24722,19263 24722,18653 24641,18431 24556,18431 24556,18780 24647,19045 24556,19045 24556,19236 24713,19236 "/>
  <polygon class="fil1" points="24889,19474 24889,19109 24722,18653 24722,19263 24796,19474 "/>
  <polygon class="fil1" points="24889,19109 24889,19474 25022,19474 "/>
  <path class="fil1" d="M26110 18948c0,-200 -135,-333 -356,-333l-134 0 0 668 134 0c221,0 356,-134 356,-335zm200 0c0,308 -203,526 -551,526l-338 0 0 -1052 338 0c348,0 551,218 551,526z"/>
  <path class="fil1" d="M25639 19292l167 0 0 -11c-17,2 -34,3 -52,3l-115 0 0 9z"/>
  <path class="fil1" d="M25806 19292l181 0 0 -77c-48,35 -109,58 -181,65l0 11zm181 -610l0 -57 -130 0c50,11 93,31 130,57z"/>
  <path class="fil1" d="M25986 19292l125 0 0 -667 -125 0 0 57c80,58 124,151 124,266 0,115 -44,209 -124,267l0 77z"/>
  <polygon class="fil1" points="25431,19474 25431,18431 25421,18431 25421,19474 "/>
  <polygon class="fil1" points="25625,19474 25625,19283 25620,19283 25620,18614 25625,18614 25625,18431 25431,18431 25431,19474 "/>
  <path class="fil1" d="M25806 19472l0 -192c-17,2 -34,3 -52,3l-129 0 0 191 134 0c16,0 32,0 47,-1zm0 -855l0 -186 -181 0 0 184 129 0c18,0 35,1 52,3z"/>
  <path class="fil1" d="M25986 19437l0 -222c-48,35 -109,58 -181,65l0 192c66,-4 126,-16 181,-35zm0 -755l0 -223c-35,-13 -73,-22 -113,-28l-67 0 0 186c72,7 132,30 181,65z"/>
  <path class="fil1" d="M26153 19338l0 -780c-46,-42 -102,-76 -167,-99l0 223c80,58 124,151 124,266 0,115 -44,209 -124,267l0 222c65,-23 120,-57 167,-99z"/>
  <path class="fil1" d="M26153 18558l0 780c102,-93 157,-229 157,-390 0,-160 -55,-296 -157,-390z"/>
  <polygon class="fil1" points="27590,18422 27210,19474 27005,19474 26625,18422 26848,18422 27108,19173 27368,18422 "/>
  <polygon class="fil1" points="26694,18613 26694,18431 26639,18431 26639,18459 "/>
  <polygon class="fil1" points="26875,19113 26875,18501 26851,18431 26694,18431 26694,18613 "/>
  <polygon class="fil1" points="27056,19474 27056,19023 26875,18501 26875,19113 27005,19474 "/>
  <polygon class="fil1" points="27222,19439 27222,18842 27108,19173 27056,19023 27056,19474 27210,19474 "/>
  <polygon class="fil1" points="27389,18978 27389,18431 27365,18431 27222,18842 27222,19439 "/>
  <polygon class="fil1" points="27583,18440 27583,18431 27389,18431 27389,18978 "/>
  <polygon class="fil1" points="27587,18431 27583,18431 27583,18440 "/>
  <polygon class="fil1" points="28686,19283 28686,19474 27988,19474 27988,18422 28677,18422 28677,18614 28188,18614 28188,18853 28631,18853 28631,19044 28188,19044 28188,19283 "/>
  <polygon class="fil1" points="28097,19474 28097,18431 28000,18431 28000,19474 "/>
  <polygon class="fil1" points="28278,19474 28278,19283 28188,19283 28188,19044 28278,19044 28278,18853 28188,18853 28188,18614 28278,18614 28278,18431 28097,18431 28097,19474 "/>
  <path class="fil1" d="M28458 19474l0 -191 -181 0 0 191 181 0zm0 -430l0 -191 -181 0 0 191 181 0zm0 -430l0 -184 -181 0 0 184 181 0z"/>
  <path class="fil1" d="M28639 19474l0 -191 -181 0 0 191 181 0zm0 -859l0 -184 -181 0 0 184 181 0zm-181 239l0 191 172 0 0 -191 -172 0z"/>
  <path class="fil1" d="M28681 19474l0 -191 -42 0 0 191 42 0zm-3 -1043l-38 0 0 184 38 0 0 -184z"/>
  <polygon class="fil1" points="29948,18422 29948,19474 29751,19474 29329,18792 29329,19474 29129,19474 29129,18422 29325,18422 29748,19104 29748,18422 "/>
  <polygon class="fil1" points="29167,19474 29167,18431 29129,18431 29129,19474 "/>
  <polygon class="fil1" points="29361,18843 29361,18480 29330,18431 29167,18431 29167,19474 29329,19474 29329,18792 "/>
  <polygon class="fil1" points="29542,19135 29542,18771 29361,18481 29361,18843 "/>
  <polygon class="fil1" points="29722,19426 29722,19062 29542,18771 29542,19134 "/>
  <polygon class="fil1" points="29903,19474 29903,18431 29748,18431 29748,19104 29722,19062 29722,19426 29751,19474 "/>
  <polygon class="fil1" points="29945,19474 29945,18431 29903,18431 29903,19474 "/>
  <polygon class="fil1" points="31141,18614 30859,18614 30859,19474 30659,19474 30659,18614 30377,18614 30377,18422 31141,18422 "/>
  <polygon class="fil1" points="30417,18614 30417,18431 30377,18431 30377,18614 "/>
  <polygon class="fil1" points="30597,18614 30597,18431 30417,18431 30417,18614 "/>
  <polygon class="fil1" points="30778,19474 30778,18431 30597,18431 30597,18614 30659,18614 30659,19474 "/>
  <polygon class="fil1" points="30958,18614 30958,18431 30778,18431 30778,19474 30859,19474 30859,18614 "/>
  <polygon class="fil1" points="31139,18614 31139,18431 30958,18431 30958,18614 "/>
  <path class="fil1" d="M32367 18422l0 638c0,263 -159,425 -403,425 -245,0 -402,-162 -402,-425l0 -638 200 0 0 634c0,141 77,228 203,228 125,0 203,-87 203,-228l0 -634 200 0z"/>
  <path class="fil1" d="M31681 19381l0 -950 -119 0 0 630c0,137 43,247 119,321z"/>
  <path class="fil1" d="M31861 19475l0 -215c-63,-35 -100,-107 -100,-204l0 -625 -81 0 0 950c48,47 109,79 181,94z"/>
  <path class="fil1" d="M32028 19482l0 -206c-20,6 -41,9 -64,9 -39,0 -74,-9 -103,-25l0 215c32,7 67,11 103,11 22,0 43,-1 64,-4z"/>
  <path class="fil1" d="M32208 19414l0 -983 -41 0 0 625c0,116 -52,195 -139,220l0 206c69,-9 130,-32 181,-68z"/>
  <path class="fil1" d="M32367 18431l-159 0 0 983c100,-72 159,-194 159,-353l0 -630z"/>
  <path class="fil1" d="M33025 18922l185 0c99,0 162,-65 162,-155 0,-90 -63,-153 -162,-153l-185 0 0 308zm146 191l-146 0 0 361 -200 0 0 -1052 389 0c235,0 365,153 365,345 0,141 -69,261 -200,316l226 391 -226 0 -209 -361z"/>
  <polygon class="fil1" points="33014,18931 33097,18931 33097,18922 33025,18922 33025,18625 33014,18625 "/>
  <path class="fil1" d="M33097 18931l181 0 0 -20c-20,8 -43,12 -68,12l-112 0 0 8zm181 -305l0 -1 -3 0 3 1z"/>
  <path class="fil1" d="M33278 18931l83 0 0 -102c-15,38 -44,67 -83,82l0 20zm83 -224l0 -82 -83 0 0 1c40,15 69,43 83,81z"/>
  <polygon class="fil1" points="32917,19474 32917,18431 32825,18431 32825,19474 "/>
  <polygon class="fil1" points="33097,19113 33097,18922 33025,18922 33025,18614 33097,18614 33097,18431 32917,18431 32917,19474 33025,19474 33025,19113 "/>
  <path class="fil1" d="M33278 19298l0 -388c-20,8 -43,12 -68,12l-112 0 0 191 73 0 107 185zm0 -672l0 -195 -181 0 0 184 112 0c25,0 48,4 68,12z"/>
  <path class="fil1" d="M33458 19474l0 -254 -79 -137c29,-12 56,-28 79,-46l0 -538c-41,-33 -92,-57 -153,-69l-28 0 0 195c59,22 94,74 94,142 0,67 -35,120 -94,143l0 387 102 176 79 0z"/>
  <path class="fil1" d="M33458 18499l0 538c80,-63 121,-160 121,-269 0,-109 -42,-205 -121,-268zm0 721l0 254 147 0 -147 -254z"/>
  <polygon class="fil1" points="34709,19283 34709,19474 34010,19474 34010,18422 34700,18422 34700,18614 34210,18614 34210,18853 34653,18853 34653,19044 34210,19044 34210,19283 "/>
  <polygon class="fil1" points="34167,19474 34167,18431 34014,18431 34014,19474 "/>
  <polygon class="fil1" points="34347,19474 34347,19283 34210,19283 34210,19044 34347,19044 34347,18853 34210,18853 34210,18614 34347,18614 34347,18431 34167,18431 34167,19474 "/>
  <path class="fil1" d="M34542 19474l0 -191 -194 0 0 191 194 0zm0 -430l0 -191 -194 0 0 191 194 0zm0 -430l0 -184 -194 0 0 184 194 0z"/>
  <path class="fil1" d="M34700 18431l-158 0 0 184 158 0 0 -184zm-158 423l0 191 112 0 0 -191 -112 0zm0 430l0 191 167 0 0 -191 -167 0z"/>
 </g>
</svg>
