<svg xmlns="http://www.w3.org/2000/svg" xmlns:xlink="http://www.w3.org/1999/xlink" viewBox="28.2 28.8 66 66">
  <defs>
    <style>
      .cls-1{opacity:0.6;}
      .cls-2{fill:#fff;}
      .cls-3,.cls-4{fill:none;stroke:#000;stroke-linecap:round;stroke-linejoin:round;}
      .cls-3{stroke-width:0.65px;}
      .cls-4{stroke-width:0.75px;stroke-dasharray:2 2 2;}
    </style>
  </defs>
  <title>Escape Button</title>
  <g id="Layer_2" data-name="Layer 2">
    <g id="Layer_1-2" data-name="Layer 1">
      <circle class="cls-2" cx="61.2" cy="61.77" r="32.75"/>
      <path d="M44,68a9.47,9.47,0,0,1-.74,1.41,7.56,7.56,0,0,1-1,1.25,6.38,6.38,0,0,1-1.25,1,5.18,5.18,0,0,1-1.53.62,2.87,2.87,0,0,1-1.45,0,3,3,0,0,1-1.2-.61,4,4,0,0,1-.9-1.12,5.57,5.57,0,0,1-.58-1.49,7.49,7.49,0,0,1-.22-2.1,7.7,7.7,0,0,1,.4-2.17,6.47,6.47,0,0,1,1-1.93,5,5,0,0,1,1.79-1.41,2.2,2.2,0,0,1,1-.26,1.54,1.54,0,0,1,.81.24,2,2,0,0,1,.62.63,3,3,0,0,1,.34,2.51,5.19,5.19,0,0,1-.83,1.71,5.92,5.92,0,0,1-1.56,1.46,5.26,5.26,0,0,1-2.25.8l.05.22a4,4,0,0,0,1,1.8,1.62,1.62,0,0,0,1.65.47,3.78,3.78,0,0,0,1.23-.55,5.51,5.51,0,0,0,1.05-.89,7.55,7.55,0,0,0,.89-1.12,10.77,10.77,0,0,0,.7-1.23.7.7,0,0,1,.38-.42.48.48,0,0,1,.42,0,.63.63,0,0,1,.25.42A1.15,1.15,0,0,1,44,68Zm-5.08-5.41a4,4,0,0,0-1.16.84A4.44,4.44,0,0,0,37,64.56a5.29,5.29,0,0,0-.46,1.32,6.12,6.12,0,0,0-.13,1.41,4.33,4.33,0,0,0,1.66-.59,4.89,4.89,0,0,0,1.2-1,3.82,3.82,0,0,0,.67-1.23A2.09,2.09,0,0,0,40,63.31a1.37,1.37,0,0,0-.39-.69A.58.58,0,0,0,38.94,62.58Z"/>
      <path d="M43.43,65.3a1.06,1.06,0,0,1,.88,0,.9.9,0,0,1,.39.57,2.46,2.46,0,0,1-.05,1.28,3.79,3.79,0,0,1-.53,1.16,1.35,1.35,0,0,0,.82.94,2.16,2.16,0,0,0,1.45.11,3.34,3.34,0,0,0,.79-.33A4,4,0,0,0,48,68.5a2.28,2.28,0,0,0,.55-.76,1.31,1.31,0,0,0,.07-.92,1.85,1.85,0,0,0-.84-1.13,16.5,16.5,0,0,0-1.46-.81A10.78,10.78,0,0,1,44.81,64a2.27,2.27,0,0,1-.9-1.36,2.65,2.65,0,0,1,.52-2.45,3.52,3.52,0,0,1,.92-.76A4.09,4.09,0,0,1,46.44,59a2.82,2.82,0,0,1,1.68,0,3.08,3.08,0,0,1,1.49,1.24,1.31,1.31,0,0,1,.07.19.49.49,0,0,1-.09.43.69.69,0,0,1-.39.27.52.52,0,0,1-.54-.18,2.84,2.84,0,0,0-.85-.81,1.69,1.69,0,0,0-1.28-.1,2.12,2.12,0,0,0-1.17.74,1.53,1.53,0,0,0-.23,1.39,1.77,1.77,0,0,0,.83,1c.46.28,1,.58,1.5.87a12.41,12.41,0,0,1,1.52,1,2.4,2.4,0,0,1,.92,1.35,2.31,2.31,0,0,1-.09,1.45A3.6,3.6,0,0,1,49,69.1a5,5,0,0,1-1.23.92,5.67,5.67,0,0,1-1.34.55,4,4,0,0,1-1.18.12,2.35,2.35,0,0,1-1-.28,2.52,2.52,0,0,1-.86-.78,3.93,3.93,0,0,1-.59-1.35c-.07-.31-.13-.63-.17-1a3.87,3.87,0,0,1,0-.9,1.71,1.71,0,0,1,.25-.73A.93.93,0,0,1,43.43,65.3Z"/>
      <path d="M57.51,61.22a.48.48,0,0,1-.4.27.7.7,0,0,1-.47-.1.77.77,0,0,1-.31-.36.56.56,0,0,1,.07-.52l.17-.25a2.29,2.29,0,0,0,.37-.8,1,1,0,0,0,0-.65.75.75,0,0,0-.46-.37,1.65,1.65,0,0,0-.87,0,2.56,2.56,0,0,0-1.42,1,6.08,6.08,0,0,0-1,1.79,8.21,8.21,0,0,0-.44,2.16,5.21,5.21,0,0,0,.23,2,2,2,0,0,0,1,1.34,2.6,2.6,0,0,0,1.81.09,5.59,5.59,0,0,0,1.69-.71,5.82,5.82,0,0,0,1.13-1,4.28,4.28,0,0,0,.72-1,8.09,8.09,0,0,0,.39-1,.6.6,0,0,1,.34-.44.53.53,0,0,1,.43,0,.72.72,0,0,1,.31.4.83.83,0,0,1,0,.58,7.46,7.46,0,0,1-1.72,2.71,6,6,0,0,1-2.91,1.61,5.65,5.65,0,0,1-1.39.16,3.56,3.56,0,0,1-1.35-.29A2.86,2.86,0,0,1,52.35,67a5.06,5.06,0,0,1-.63-1.3,5.82,5.82,0,0,1-.2-2.43,9.2,9.2,0,0,1,.66-2.6,7.84,7.84,0,0,1,1.34-2.17,3.68,3.68,0,0,1,1.87-1.2,2.73,2.73,0,0,1,1.66,0,1.7,1.7,0,0,1,.89.84,2.37,2.37,0,0,1,.2,1.32A3.75,3.75,0,0,1,57.68,61Z"/>
      <path d="M66.48,61.2a14.06,14.06,0,0,1-.81,2.13,7.92,7.92,0,0,1-.93,1.5,4.76,4.76,0,0,1-1,.94,3.34,3.34,0,0,1-1,.45,2.15,2.15,0,0,1-1.55-.15,2.53,2.53,0,0,1-1-1,3.85,3.85,0,0,1-.45-1.61,9.92,9.92,0,0,1,.09-2,12.55,12.55,0,0,1,.52-2.14,11.21,11.21,0,0,1,.89-2,7.12,7.12,0,0,1,1.15-1.53A3,3,0,0,1,63.73,55a3.25,3.25,0,0,1,1.21,0,4.07,4.07,0,0,1,1.34.51l-.62,1.09a1.88,1.88,0,0,0-2.63.33,5.2,5.2,0,0,0-.87,1.29,10.58,10.58,0,0,0-.68,1.67,10.06,10.06,0,0,0-.42,1.77A9.26,9.26,0,0,0,61,63.27a2.72,2.72,0,0,0,.31,1.24,1,1,0,0,0,.46.43,1,1,0,0,0,.73,0,2.44,2.44,0,0,0,.75-.34,3.1,3.1,0,0,0,.79-.76,6.77,6.77,0,0,0,.72-1.25,7.69,7.69,0,0,0,.51-1.81Zm-.84-6.37a.63.63,0,0,1,.24-.45.76.76,0,0,1,.45-.15.67.67,0,0,1,.42.18.62.62,0,0,1,.17.52l-.09,1.2c-.11,1.23-.21,2.44-.29,3.64a32.36,32.36,0,0,0-.07,3.36.72.72,0,0,0,.22.57.47.47,0,0,0,.46.09,2.59,2.59,0,0,0,.88-.41,4.77,4.77,0,0,0,.83-.75,8,8,0,0,0,.72-1,7.53,7.53,0,0,0,.55-1.1.85.85,0,0,1,.34-.48A.68.68,0,0,1,70.9,60a.41.41,0,0,1,.32.24.73.73,0,0,1,0,.56,6,6,0,0,1-.64,1.56,7.5,7.5,0,0,1-1,1.28,5.49,5.49,0,0,1-1.1.93,3.58,3.58,0,0,1-1.09.49,1.9,1.9,0,0,1-1.54-.18,1.93,1.93,0,0,1-.69-1.66c0-1.24,0-2.46,0-3.65s.16-2.36.27-3.5Z"/>
      <path d="M71.29,53.53a.69.69,0,0,1,.33-.41.64.64,0,0,1,.45-.08.59.59,0,0,1,.37.24.68.68,0,0,1,.09.51l-.09.36c-.16.7-.35,1.61-.57,2.74s-.41,2.39-.57,3.78c0,.5-.09,1.08-.12,1.73s-.07,1.32-.09,2,0,1.37,0,2,0,1.3,0,1.87.06,1,.1,1.46a2.9,2.9,0,0,0,.17.84.77.77,0,0,1,0,.57.59.59,0,0,1-.76.39.94.94,0,0,1-.46-.45,3.81,3.81,0,0,1-.19-.92c0-.44-.08-1-.12-1.57s0-1.28,0-2,0-1.45,0-2.17,0-1.44.07-2.12.07-1.31.12-1.86a38.41,38.41,0,0,1,.55-3.93c.22-1.14.43-2.06.6-2.75v0ZM70,61.05a11.83,11.83,0,0,1,.88-2.94,14.9,14.9,0,0,1,1.49-2.68,8,8,0,0,1,1.73-1.85,1.75,1.75,0,0,1,1.57-.45v0a2,2,0,0,1,1,.65,2.59,2.59,0,0,1,.52,1.08,4.84,4.84,0,0,1,.14.85,10.23,10.23,0,0,1-.19,2.5,15.53,15.53,0,0,1-.65,2.38c-.08.19-.15.39-.23.6a3.4,3.4,0,0,1-.27.54,5.82,5.82,0,0,0,2.16-1.63,10.27,10.27,0,0,0,1.25-2,.68.68,0,0,1,.39-.41.38.38,0,0,1,.38.09.71.71,0,0,1,.23.42,1.05,1.05,0,0,1,0,.58,7.28,7.28,0,0,1-.64,1.28,6,6,0,0,1-1,1.24,8,8,0,0,1-1.54,1.13,9.86,9.86,0,0,1-2.2.9,1.31,1.31,0,0,1-.8.07.46.46,0,0,1-.3-.31.88.88,0,0,1,0-.52,1.69,1.69,0,0,1,.29-.53,7.89,7.89,0,0,0,1.13-1.93,10.73,10.73,0,0,0,.58-2.05,8.7,8.7,0,0,0,.14-2.28,4.06,4.06,0,0,0-.09-.65,1,1,0,0,0-.67-.8c-.3-.1-.66.06-1.08.47A7.52,7.52,0,0,0,73,56.45a14.54,14.54,0,0,0-1.09,2.31,11.17,11.17,0,0,0-.66,2.5Z"/>
      <path d="M88,57a9.53,9.53,0,0,1-.75,1.41,6.64,6.64,0,0,1-1,1.25,6.34,6.34,0,0,1-1.25,1,5.54,5.54,0,0,1-1.52.63,3,3,0,0,1-1.46,0,3.06,3.06,0,0,1-1.2-.62,3.84,3.84,0,0,1-.9-1.11,5.92,5.92,0,0,1-.58-1.49,7.49,7.49,0,0,1-.21-2.1,7.35,7.35,0,0,1,.39-2.17,6.5,6.5,0,0,1,1.06-1.93,5.12,5.12,0,0,1,1.78-1.42,2.37,2.37,0,0,1,1-.25,1.61,1.61,0,0,1,.82.24,1.94,1.94,0,0,1,.61.63,3.31,3.31,0,0,1,.39.92,3.21,3.21,0,0,1-.05,1.59,5,5,0,0,1-.82,1.7,5.85,5.85,0,0,1-1.57,1.47,5.25,5.25,0,0,1-2.25.79l.06.22a3.81,3.81,0,0,0,1,1.81,1.6,1.6,0,0,0,1.64.47,4,4,0,0,0,1.23-.55,6,6,0,0,0,1.06-.89,8.21,8.21,0,0,0,.88-1.12A12.62,12.62,0,0,0,87,56.27a.67.67,0,0,1,.38-.42.45.45,0,0,1,.41,0,.6.6,0,0,1,.25.42A1.14,1.14,0,0,1,88,57Zm-5.09-5.41a4.11,4.11,0,0,0-1.16.84,4.44,4.44,0,0,0-.78,1.14,5.71,5.71,0,0,0-.45,1.32,5.58,5.58,0,0,0-.13,1.4A4.06,4.06,0,0,0,82,55.71a4.89,4.89,0,0,0,1.2-1,3.64,3.64,0,0,0,.67-1.23A2.09,2.09,0,0,0,84,52.32a1.24,1.24,0,0,0-.39-.69A.58.58,0,0,0,82.88,51.59Z"/>
      <path d="M49.25,48.15a.42.42,0,0,1-.35-.06.44.44,0,0,1-.2-.23.37.37,0,0,1,0-.29.4.4,0,0,1,.31-.2A10.68,10.68,0,0,0,52,46.24a7.27,7.27,0,0,0,1.82-1.49,4.24,4.24,0,0,0,.86-1.55,2.73,2.73,0,0,0,.08-1.34,1.09,1.09,0,0,0-.35-.63.68.68,0,0,0-.62-.15.94.94,0,0,0-.57.52,4.73,4.73,0,0,0-.41,1.13c-.11.46-.21,1-.3,1.57s-.17,1.2-.25,1.85L52,48c-.09.61-.19,1.22-.32,1.8a15,15,0,0,1-.46,1.67,6.86,6.86,0,0,1-.64,1.42,4.25,4.25,0,0,1-.89,1.06,2.71,2.71,0,0,1-1.19.58,1.88,1.88,0,0,1-1.4-.09,1.08,1.08,0,0,1-.57-.78,1.26,1.26,0,0,1,.3-1A2.1,2.1,0,0,1,48,52a4.38,4.38,0,0,1,1.73,0,14.61,14.61,0,0,1,2,.55c.71.25,1.43.52,2.18.82s1.47.57,2.18.81a15.48,15.48,0,0,0,2.06.55,4.44,4.44,0,0,0,1.78,0,2.66,2.66,0,0,0,1.46-.91,4.66,4.66,0,0,0,.86-2.2.42.42,0,0,1,.17-.32.42.42,0,0,1,.31-.08.37.37,0,0,1,.26.15.49.49,0,0,1,.06.4A5.18,5.18,0,0,1,62,54.41a3.5,3.5,0,0,1-1.86,1.12,5.52,5.52,0,0,1-2,0A12.89,12.89,0,0,1,56,55.05c-.71-.24-1.42-.52-2.14-.82s-1.41-.59-2.08-.84a12.44,12.44,0,0,0-1.92-.57,3.94,3.94,0,0,0-1.67,0,1.71,1.71,0,0,0-.69.3c-.16.14-.24.27-.23.39s.09.21.25.27a1.35,1.35,0,0,0,.75,0,2.2,2.2,0,0,0,1.34-.94A6.62,6.62,0,0,0,50.51,51a17,17,0,0,0,.56-2.38c.14-.86.26-1.71.38-2.54s.18-1.37.28-2a14,14,0,0,1,.4-1.76,4.83,4.83,0,0,1,.59-1.31,1.46,1.46,0,0,1,.88-.65,1.42,1.42,0,0,1,1.25.24,1.91,1.91,0,0,1,.68,1.16,3.39,3.39,0,0,1-.06,1.6,4.85,4.85,0,0,1-.94,1.83,8.16,8.16,0,0,1-2,1.73A11.31,11.31,0,0,1,49.25,48.15Z"/>
      <path d="M61.17,49.05a6.45,6.45,0,0,1-.49.89,4.13,4.13,0,0,1-.66.78,3.78,3.78,0,0,1-.81.62,3.57,3.57,0,0,1-1,.38,1.94,1.94,0,0,1-.93,0,2,2,0,0,1-.75-.41,2.8,2.8,0,0,1-.57-.73,4,4,0,0,1-.34-1,4.58,4.58,0,0,1-.1-1.35,4.71,4.71,0,0,1,.28-1.38,4.15,4.15,0,0,1,.71-1.22,3.12,3.12,0,0,1,1.17-.87,1.39,1.39,0,0,1,.65-.15,1,1,0,0,1,.52.17,1.16,1.16,0,0,1,.38.41,1.82,1.82,0,0,1,.23.59,2.11,2.11,0,0,1,0,1,3.29,3.29,0,0,1-.56,1.08,3.77,3.77,0,0,1-1,.91,3.55,3.55,0,0,1-1.45.47l0,.14A2.4,2.4,0,0,0,57,50.6a1,1,0,0,0,1,.33,2.81,2.81,0,0,0,.8-.33,4.07,4.07,0,0,0,.69-.55,5,5,0,0,0,.58-.71,7,7,0,0,0,.48-.77.44.44,0,0,1,.24-.27.36.36,0,0,1,.27,0,.41.41,0,0,1,.15.28A.64.64,0,0,1,61.17,49.05ZM58,45.51a2.34,2.34,0,0,0-.75.52,2.55,2.55,0,0,0-.52.71,3.38,3.38,0,0,0-.31.84,3.94,3.94,0,0,0-.11.89,2.69,2.69,0,0,0,1.07-.34,3.14,3.14,0,0,0,.78-.65,2.25,2.25,0,0,0,.45-.77,1.31,1.31,0,0,0,.06-.72.76.76,0,0,0-.24-.44A.35.35,0,0,0,58,45.51Z"/>
      <path d="M59.67,44.63a.18.18,0,0,1-.11-.13.48.48,0,0,1,.08-.32.53.53,0,0,1,.36-.24,1.51,1.51,0,0,1,.32,0h.43l.64-.06a7.88,7.88,0,0,0,.87-.16l.6-.16.52-.17a.3.3,0,0,1,.3.06.44.44,0,0,1,.14.26.5.5,0,0,1,0,.27.23.23,0,0,1-.16.18l-.52.17a5.75,5.75,0,0,1-.69.18,7.5,7.5,0,0,1-1.74.22A6,6,0,0,1,59.67,44.63Zm2-.33-.26,1.45a13.6,13.6,0,0,0-.16,1.82A5.92,5.92,0,0,0,61.36,49a2.21,2.21,0,0,0,.31.78.41.41,0,0,0,.44.21,1.19,1.19,0,0,0,.51-.28,4,4,0,0,0,.51-.56,4.45,4.45,0,0,0,.45-.68,5.7,5.7,0,0,0,.32-.67.33.33,0,0,1,.19-.21.36.36,0,0,1,.27,0,.41.41,0,0,1,.2.21.57.57,0,0,1,0,.4,6.51,6.51,0,0,1-.37.82,5,5,0,0,1-.53.79,3.92,3.92,0,0,1-.65.64,1.71,1.71,0,0,1-.69.34,1.11,1.11,0,0,1-1.09-.27,2.63,2.63,0,0,1-.63-1.33,6.59,6.59,0,0,1-.14-1.56,12.12,12.12,0,0,1,.18-2l.22-1.3Zm-.93.25c.2-.87.37-1.65.54-2.35a8.69,8.69,0,0,1,.58-1.71.1.1,0,0,1,.06-.05.05.05,0,0,0,.05,0,.55.55,0,0,1,.36,0,.38.38,0,0,1,.26.21.34.34,0,0,1,0,.2c-.2.55-.37,1.13-.52,1.72s-.29,1.18-.41,1.77Z"/>
      <path d="M64.92,40.42A.51.51,0,0,1,65,40a.3.3,0,0,1,.27-.08.44.44,0,0,1,.28.14.37.37,0,0,1,.13.29,5.54,5.54,0,0,1-.1,1.17,8.74,8.74,0,0,1-.31,1.19.33.33,0,0,1-.21.23.44.44,0,0,1-.52-.16.35.35,0,0,1,0-.33,5.55,5.55,0,0,0,.35-2.07Z"/>
      <path d="M67.79,45.76a.71.71,0,0,1,.56.05.55.55,0,0,1,.24.37,1.56,1.56,0,0,1,0,.82,2.48,2.48,0,0,1-.36.73.88.88,0,0,0,.51.62,1.31,1.31,0,0,0,.92.09,1.73,1.73,0,0,0,.51-.2,2,2,0,0,0,.51-.35,1.55,1.55,0,0,0,.37-.48.82.82,0,0,0,.06-.58,1.15,1.15,0,0,0-.52-.74c-.28-.19-.59-.37-.92-.55a7.28,7.28,0,0,1-.93-.58,1.49,1.49,0,0,1-.55-.88,1.86,1.86,0,0,1,0-.88,1.8,1.8,0,0,1,.37-.68,2.53,2.53,0,0,1,.6-.48,2.64,2.64,0,0,1,.71-.26,1.77,1.77,0,0,1,1.07.06,2,2,0,0,1,.93.82.34.34,0,0,1,0,.12.32.32,0,0,1-.06.27.44.44,0,0,1-.25.17.32.32,0,0,1-.35-.13,1.75,1.75,0,0,0-.53-.52,1.08,1.08,0,0,0-.81-.09,1.37,1.37,0,0,0-.77.45,1,1,0,0,0-.16.89,1.09,1.09,0,0,0,.51.66c.29.19.6.39.94.59a7.67,7.67,0,0,1,1,.65,1.48,1.48,0,0,1,.56.88,1.43,1.43,0,0,1-.07.92,2.29,2.29,0,0,1-.54.77,3.61,3.61,0,0,1-.8.57,3.8,3.8,0,0,1-.86.32,2.49,2.49,0,0,1-.76.06,1.38,1.38,0,0,1-.66-.2,1.51,1.51,0,0,1-.54-.5,2.45,2.45,0,0,1-.35-.88,4.09,4.09,0,0,1-.1-.61,2.69,2.69,0,0,1,0-.57A1.26,1.26,0,0,1,67.4,46,.64.64,0,0,1,67.79,45.76Z"/>
      <polygon class="cls-3" points="76.13 78.78 86.16 66.45 75.19 73.73 76.13 78.78"/>
      <polygon class="cls-3" points="86.16 66.45 75.32 71.4 74.9 67.61 86.16 66.45"/>
      <polyline class="cls-3" points="79.25 75 80.51 75.39 86.16 66.45 75.19 73.73"/>
      <polyline class="cls-3" points="80.51 75.39 86.16 66.45 75.32 71.4 76.87 72.59"/>
      <path class="cls-4" d="M41.93,76.13c2.46,4.11,8.65,6.19,13.19,6.25a10,10,0,0,0,6.42-2.53c1.66-1.47,3.26-3.46,2.79-6-.53-2.91-3.41-4.08-4.93-4.2-3.32-.28-5.6,2-6.06,5.2-.86,6,3.27,10.78,9.23,9.88,7.15-1.08,5.75-8.73,11.24-11.2"/>
    </g>
  </g>
</svg>